<?xml version="1.0" standalone="no"?>
<!DOCTYPE svg PUBLIC "-//W3C//DTD SVG 1.1//EN" "http://www.w3.org/Graphics/SVG/1.1/DTD/svg11.dtd" >
<svg>
<metadata>
Created by FontForge 20090622 at Wed Apr 19 14:06:54 2017
 By deploy user
Copyright 1990-1999 as an unpublished work by Bitstream Inc.  All rights reserved.  Confidential.
</metadata>
<defs>
<font id="BauerBodoniBT-Roman" horiz-adv-x="500" >
  <font-face 
    font-family="Bauer Bodoni"
    font-weight="500"
    font-stretch="normal"
    units-per-em="1000"
    panose-1="0 0 0 0 0 0 0 0 0 0"
    ascent="800"
    descent="-200"
    x-height="398"
    cap-height="662"
    bbox="-167 -250 1014 936"
    underline-thickness="56"
    underline-position="-92"
    unicode-range="U+0020-U+FB02"
  />
<missing-glyph horiz-adv-x="241" 
 />
    <glyph glyph-name=".notdef" horiz-adv-x="241" 
 />
    <glyph glyph-name=".null" horiz-adv-x="0" 
 />
    <glyph glyph-name="nonmarkingreturn" horiz-adv-x="333" 
 />
    <glyph glyph-name="space" unicode=" " horiz-adv-x="241" 
 />
    <glyph glyph-name="exclam" unicode="!" horiz-adv-x="329" 
d="M171 144h-15v27q0 281 -43 402q30 44 50 103q22 -59 52 -103q-44 -125 -44 -404v-25zM116 31q0 18 13 31t32 13t31.5 -12.5t12.5 -31.5t-13 -32t-31 -13q-19 0 -32 13t-13 32z" />
    <glyph glyph-name="quotedbl" unicode="&#x22;" horiz-adv-x="331" 
d="M93 422h-16l-31 223q-2 14 -2 20q0 49 41 49q42 0 42 -49q0 -4 -2 -20zM253 422h-15l-32 223q-2 14 -2 19q0 50 42 50q41 0 41 -49q0 -12 -1 -20z" />
    <glyph glyph-name="numbersign" unicode="#" horiz-adv-x="769" 
d="M380 711h65l-82 -231h140l82 231h64l-81 -231h150l-20 -56h-151l-49 -140h162l-21 -56h-161l-81 -229h-65l81 229h-140l-81 -229h-64l81 229h-158l21 56h157l49 140h-170l21 56h170zM342 424l-49 -140h141l50 140h-142z" />
    <glyph glyph-name="dollar" unicode="$" horiz-adv-x="481" 
d="M33 7v230h12q10 -169 139 -212v275q-67 9 -105.5 49.5t-38.5 99.5q0 82 37.5 136.5t106.5 74.5v83h21v-80q16 2 24 2q12 0 36 -4v82h21v-87q22 -8 49 -27.5t39 -19.5q24 0 24 44v5h10v-205h-11q-11 148 -111 184v-263q167 -22 167 -166q0 -81 -45 -138.5t-122 -72.5v-142
h-21v142h-8q-22 0 -52 7v-149h-21v152q-23 7 -47.5 19l-40 19t-24.5 7q-22 0 -24 -45h-15zM205 20q26 -8 60 -8v275q-29 7 -60 10v-277zM286 13q56 11 89.5 49.5t33.5 90.5q0 51 -32 85.5t-91 44.5v-270zM184 396v248q-48 -13 -76 -50.5t-28 -86.5q0 -92 104 -111zM205 391
q44 -10 60 -13v266q-23 5 -41 5q-13 0 -19 -1v-257z" />
    <glyph glyph-name="percent" unicode="%" horiz-adv-x="704" 
d="M191 -12h-30l351 676h31zM28 484q0 77 38.5 126.5t92.5 49.5t93 -50t39 -126t-39 -126t-93 -50t-92.5 49.5t-38.5 126.5zM92 484q0 -87 14.5 -124.5t52.5 -37.5q39 0 53 37.5t14 124.5q0 88 -14 125t-53 37t-53 -37.5t-14 -124.5zM413 169q0 76 38.5 125.5t92.5 49.5
q55 0 93.5 -49.5t38.5 -125.5t-39 -126t-93 -50t-92.5 49.5t-38.5 126.5zM478 169q0 -87 14 -124.5t52 -37.5q39 0 53 37.5t14 124.5q0 88 -14 124.5t-53 36.5t-52.5 -36.5t-13.5 -124.5z" />
    <glyph glyph-name="ampersand" unicode="&#x26;" horiz-adv-x="715" 
d="M369 125q-44 54 -154 206q-49 -26 -71 -53.5t-22 -65.5q0 -54 44.5 -106.5t98.5 -52.5q50 0 104 72zM282 392q85 57 85 128q0 36 -22.5 60.5t-58.5 24.5q-33 0 -52.5 -18t-19.5 -49q0 -22 10 -47t21 -43t37 -56zM380 111q-96 -120 -186 -120q-60 0 -107 50t-47 111
q0 49 42.5 98t125.5 93q-67 96 -67 149q0 51 41 90.5t92 39.5q49 0 79.5 -28.5t30.5 -74.5q0 -78 -93 -139l133 -181l54.5 67t38 34t45.5 17q24 0 40.5 -16t16.5 -38q0 -26 -14 -42t-39 -16q-38 0 -47 34q-2 6 -2.5 15t-0.5 13.5t-3 4.5q-6 0 -29 -28l-50 -58
q89 -121 152 -121q22 0 39 16.5t34 53.5l15 -10q-38 -71 -67.5 -101t-71.5 -30q-38 0 -71.5 27t-83.5 90z" />
    <glyph glyph-name="quotesingle" unicode="'" horiz-adv-x="170" 
d="M93 422h-16l-32 223q-1 7 -1 19q0 50 41 50q42 0 42 -49q0 -4 -2 -20z" />
    <glyph glyph-name="parenleft" unicode="(" horiz-adv-x="324" 
d="M312 660q-81 -68 -118 -160t-37 -219v-108q0 -127 37 -219t118 -160v-16q-110 77 -170.5 194t-60.5 255t60.5 255t170.5 194v-16z" />
    <glyph glyph-name="parenright" unicode=")" horiz-adv-x="324" 
d="M12 660v16q110 -77 170.5 -194t60.5 -255t-60.5 -255t-170.5 -194v16q81 68 118 160t37 219v108q0 127 -37 219t-118 160z" />
    <glyph glyph-name="asterisk" unicode="*" 
d="M247 478q-4 45 -16.5 81t-23 53t-10.5 18q0 6 8 6h4l22 -3l6 27q3 16 11 16t12 -16l8 -26l20 5l1 1h2q8 0 8 -9l-9 -18q-10 -18 -19.5 -54t-9.5 -80q42 21 74 45t45.5 37t15.5 13q5 0 5 -6l3 -26l29 3h3q9 0 9 -8q0 -7 -2 -8l-27 -20l8 -18l5 -10q0 -6 -7 -6
q-1 0 -6.5 1.5t-16 3.5t-23.5 2q-82 0 -112 -16q31 -33 64.5 -56.5t49.5 -32.5t16 -13t-8 -7l-17 -6l13 -26q3 -6 3 -10q0 -11 -10 -11q-2 0 -6 2l-30 20l-17 -17q-3 -3 -5 -3q-5 0 -11 28q-15 82 -52 123q-20 -40 -30.5 -79.5t-13 -57.5t-5.5 -18q-1 0 -3 2l-18 18l-25 -22
q-6 -6 -11 -6q-9 0 -9 10q0 2 2 8l9 28l-21 8q-7 3 -7 8q0 4 17.5 13.5t48.5 35t56 62.5q-24 7 -58 7q-30 0 -61.5 -3.5t-32.5 -3.5q-16 0 -16 8q0 1 1 2l15 19l-31 19q-7 4 -7 10q0 7 12 7h10l24 -2l1 25q0 12 9 12q1 0 15.5 -14.5t47 -37t74.5 -37.5z" />
    <glyph glyph-name="plus" unicode="+" horiz-adv-x="833" 
d="M388 596h58v-269h263v-57h-263v-270h-58v270h-264v57h264v269z" />
    <glyph glyph-name="comma" unicode="," horiz-adv-x="241" 
d="M110 -192l-10 11q84 83 84 158q0 26 -21 26q-6 0 -25 -7t-32 -7q-25 0 -39 13t-14 36t17 37.5t44 14.5q37 0 61 -28.5t24 -75.5q0 -97 -89 -178z" />
    <glyph glyph-name="hyphen" unicode="-" horiz-adv-x="384" 
d="M83 168v64h218v-64h-218z" />
    <glyph glyph-name="period" unicode="." horiz-adv-x="241" 
d="M76 37q0 18 13 31.5t31 13.5q19 0 32 -13t13 -32t-13 -31.5t-32 -12.5t-31.5 13t-12.5 31z" />
    <glyph glyph-name="slash" unicode="/" horiz-adv-x="278" 
d="M-2 -93h-27l280 769h27z" />
    <glyph glyph-name="zero" unicode="0" horiz-adv-x="481" 
d="M28 326q0 137 59 233q63 103 154 103t154 -103q59 -96 59 -233t-59 -233q-65 -105 -154 -105t-154 105q-59 96 -59 233zM120 326q0 -174 25.5 -249t95.5 -75q69 0 94.5 75t25.5 249t-25.5 248t-94.5 74q-70 0 -95.5 -74.5t-25.5 -247.5z" />
    <glyph glyph-name="one" unicode="1" horiz-adv-x="481" 
d="M140 0v17h82v510q0 35 -9 35q-6 0 -24 -6.5t-53 -25t-75 -43.5l-3 17q140 82 215 149h34v-636h74v-17h-241z" />
    <glyph glyph-name="two" unicode="2" horiz-adv-x="481" 
d="M19 0q4 11 9 21.5t13 22.5l14.5 21.5t18.5 23l19.5 22t24 24.5l24.5 24l27.5 27l27.5 27q73 72 107 131t34 135q0 77 -38.5 121.5t-104.5 44.5q-56 0 -98.5 -36.5t-42.5 -74.5q0 -16 8 -21.5t29 -7.5q48 -3 48 -42q0 -20 -13.5 -34.5t-33.5 -14.5q-27 0 -45 23.5
t-18 61.5q0 68 53.5 115.5t138.5 47.5q95 0 152.5 -50.5t57.5 -134.5q0 -63 -37.5 -113.5t-121.5 -118.5l-45.5 -36t-52 -42t-42.5 -39t-45 -49h333l16 102h15l-27 -181h-405z" />
    <glyph glyph-name="three" unicode="3" horiz-adv-x="481" 
d="M108 375q15 -1 41 -1q100 0 142 31.5t42 113.5q0 61 -31 95.5t-87 34.5q-50 0 -87 -22.5t-37 -42.5q0 -9 19 -9h8q16 0 26 -10.5t10 -26.5q0 -20 -12 -33.5t-28 -13.5q-25 0 -39 16.5t-14 44.5q0 46 44.5 78t116.5 32q90 0 140 -39t50 -108q0 -56 -42 -95t-116 -49
q91 -13 140 -60.5t49 -121.5q0 -82 -69 -141.5t-170 -59.5q-84 0 -134 36.5t-50 91.5q0 30 17 50t42 20q20 0 34.5 -14.5t14.5 -33.5q0 -21 -13 -34.5t-31 -13.5q-7 0 -15.5 1.5t-10.5 1.5q-10 0 -10 -16q0 -23 43 -48t102 -25q80 0 121.5 45.5t41.5 132.5q0 97 -46 140
t-146 43q-26 0 -56 -3v13z" />
    <glyph glyph-name="four" unicode="4" horiz-adv-x="481" 
d="M206 0v17h73v218h-270l5 7l343 439l11 -8l-289 -369h200v224h86v-224h97v-69h-97v-218h77v-17h-236z" />
    <glyph glyph-name="five" unicode="5" horiz-adv-x="481" 
d="M73 348l-15 9q21 31 21 125q0 98 -17 161q37 19 123 19q46 0 97 -8.5t57 -8.5q30 0 30 25v4h11v-12q0 -46 -23.5 -67.5t-74.5 -21.5q-24 0 -66 6.5t-61 6.5q-36 0 -64 -16q4 -29 4 -89q0 -75 -10 -104q60 30 127 30q107 0 172 -56.5t65 -148.5t-73 -153t-182 -61
q-78 0 -126 37.5t-48 96.5q0 28 16 46t41 18q21 0 33.5 -13t12.5 -35q0 -39 -41 -39h-10q-21 0 -21 -18q0 -25 39 -51t97 -26q80 0 125.5 51t45.5 142t-43.5 141.5t-121.5 50.5q-71 0 -120 -41z" />
    <glyph glyph-name="six" unicode="6" horiz-adv-x="481" 
d="M407 673l6 -11q-144 -37 -215.5 -117t-76.5 -210q65 84 143 84q82 0 137 -59t55 -153q0 -90 -63 -154.5t-151 -64.5q-92 0 -153 70t-61 175q0 170 97 283.5t282 156.5zM254 396q-64 0 -102 -46t-38 -128q0 -108 34 -164t98 -56q55 0 87.5 54.5t32.5 153.5q0 89 -30 137.5
t-82 48.5z" />
    <glyph glyph-name="seven" unicode="7" horiz-adv-x="481" 
d="M42 497l-12 2q13 112 20 154h418l-173 -376q-72 -158 -72 -194q0 -7 14 -7h8q12 0 18 -1q36 -7 36 -42q0 -20 -12 -32.5t-31 -12.5q-23 0 -37 18.5t-14 49.5q0 41 34 129l148 387h-279q-37 0 -43 -5q-8 -5 -23 -70z" />
    <glyph glyph-name="eight" unicode="8" horiz-adv-x="481" 
d="M223 353q-79 18 -121.5 58.5t-42.5 93.5q0 64 54.5 112t130.5 48q74 0 128.5 -47t54.5 -109q0 -56 -41.5 -97t-119.5 -59q96 -30 145.5 -81.5t49.5 -118.5q0 -70 -61 -117.5t-157 -47.5t-156.5 48t-60.5 119q0 64 51.5 117.5t145.5 80.5zM244 347q-59 -16 -92 -61.5
t-33 -112.5q0 -78 35 -124t92 -46t89.5 40.5t32.5 112.5q0 160 -124 191zM244 359q54 12 76 50t22 112q0 128 -96 128q-103 0 -103 -136q0 -133 101 -154z" />
    <glyph glyph-name="nine" unicode="9" horiz-adv-x="481" 
d="M71 -20l-6 11q144 38 215.5 117.5t76.5 209.5q-65 -84 -144 -84q-82 0 -136.5 59t-54.5 153q0 89 62.5 154t150.5 65q93 0 154 -70t61 -175q0 -170 -97 -283.5t-282 -156.5zM224 257q64 0 102 46t38 128q0 108 -34.5 164t-98.5 56q-54 0 -86.5 -54.5t-32.5 -153.5
q0 -89 30 -137.5t82 -48.5z" />
    <glyph glyph-name="colon" unicode=":" horiz-adv-x="329" 
d="M120 37q0 19 13 31.5t32 12.5t31.5 -12.5t12.5 -31.5t-12.5 -31.5t-31.5 -12.5t-32 12.5t-13 31.5zM120 366q0 19 13 31.5t32 12.5t31.5 -12.5t12.5 -31.5t-12.5 -32t-31.5 -13t-32 13t-13 32z" />
    <glyph glyph-name="semicolon" unicode=";" horiz-adv-x="329" 
d="M120 366q0 18 12.5 31t31.5 13t32 -12.5t13 -31.5t-13 -32t-32 -13q-18 0 -31 13.5t-13 31.5zM146 -192l-11 11q84 83 84 158q0 26 -20 26q-6 0 -25 -7t-32 -7q-25 0 -39 13t-14 36t16.5 37.5t43.5 14.5q37 0 61 -28.5t24 -75.5q0 -97 -88 -178z" />
    <glyph glyph-name="less" unicode="&#x3c;" horiz-adv-x="833" 
d="M704 559v-62l-488 -199l488 -198v-63l-575 236v50z" />
    <glyph glyph-name="equal" unicode="=" horiz-adv-x="833" 
d="M124 420h585v-57h-585v57zM124 233h585v-57h-585v57z" />
    <glyph glyph-name="greater" unicode="&#x3e;" horiz-adv-x="833" 
d="M129 559l575 -236v-50l-575 -236v63l488 198l-488 199v62z" />
    <glyph glyph-name="question" unicode="?" horiz-adv-x="449" 
d="M169 136l-12 -2q-14 53 -14 108q0 34 5 58.5t21 46t26.5 31.5l38.5 35q35 30 50 45t29 41.5t14 56.5q0 45 -32.5 75t-83.5 30q-40 0 -67 -18t-27 -35q0 -12 26 -21q37 -13 37 -42q0 -44 -44 -44q-24 0 -38.5 16t-14.5 43q0 51 35.5 83.5t93.5 32.5q65 0 105.5 -46
t40.5 -121q0 -54 -21.5 -93.5t-67.5 -81.5l-27 -23.5t-25.5 -23t-19 -21t-17 -25t-9 -26.5t-4.5 -34q0 -22 2 -45zM125 30q0 19 12.5 32t31.5 13t31.5 -13t12.5 -32t-12.5 -31.5t-31.5 -12.5t-31.5 13t-12.5 31z" />
    <glyph glyph-name="at" unicode="@" horiz-adv-x="986" 
d="M536 471q-50 0 -93 -64q-36 -54 -56.5 -115.5t-20.5 -108.5q0 -46 20 -72t53 -26q64 0 118 87q61 99 61 195q0 46 -23 75t-59 29zM581 164q-60 -103 -151 -103q-61 0 -98 45t-37 119q0 112 91 200q68 66 146 66q87 0 108 -95l26 88h70l-83 -298q-9 -31 -9 -53
q0 -23 12.5 -36.5t33.5 -13.5q38 0 80 32q123 91 123 267q0 135 -99 222q-92 81 -236 81q-182 0 -301 -114q-129 -124 -129 -324q0 -164 116 -263q113 -96 284 -96q160 0 299 101l15 -18q-146 -108 -320 -108q-184 0 -301 90q-150 113 -150 309q0 204 164 339
q129 108 310 108q169 0 270 -91.5t101 -243.5q0 -77 -28.5 -145t-79.5 -115q-57 -53 -126 -53q-95 0 -101 103z" />
    <glyph glyph-name="A" unicode="A" horiz-adv-x="456" 
d="M-71 0v14h13q37 0 48.5 12t23.5 49l193 594h11l235 -655h66v-14h-254v14h86l-73 201h-204l-49 -159q-4 -12 -4 -18q0 -14 17.5 -18t63.5 -6v-14h-173zM79 229h194l-101 283z" />
    <glyph glyph-name="B" unicode="B" horiz-adv-x="569" 
d="M12 0v14h74v634h-74v14h262q114 0 175.5 -41.5t61.5 -115.5q0 -64 -49.5 -106t-137.5 -48q101 -10 154 -53.5t53 -116.5q0 -78 -61 -129.5t-163 -51.5h-295zM185 359q15 -1 42 -1q97 0 142.5 32.5t45.5 103.5q0 70 -46.5 111.5t-130.5 41.5h-53v-288zM185 14h43
q100 0 148 41t48 129q0 163 -213 163q-4 0 -12.5 -0.5t-13.5 -0.5v-332z" />
    <glyph glyph-name="C" unicode="C" horiz-adv-x="606" 
d="M534 237h13v-224h-13q-8 47 -32 47q-11 0 -58 -31q-21 -14 -33.5 -21t-37 -14.5t-52.5 -7.5q-116 0 -208 106q-83 96 -83 225q0 156 88 258q87 101 207 101q29 0 57 -8.5t38.5 -14t39.5 -22.5l13 -8t12.5 -7.5t10.5 -5t11 -2.5q25 0 27 40h13v-198h-13q-10 94 -68 153
t-134 59q-191 0 -191 -341q0 -156 37 -225q24 -45 63.5 -70.5t80.5 -25.5q49 0 96.5 28.5t81.5 80.5q28 41 34 128z" />
    <glyph glyph-name="D" unicode="D" horiz-adv-x="653" 
d="M12 0v14h74v634h-74v14h250q159 0 246 -75q112 -98 112 -256t-112 -255q-88 -76 -246 -76h-250zM185 14h58q136 0 202.5 78.5t66.5 238.5q0 161 -66.5 239t-202.5 78h-58v-634z" />
    <glyph glyph-name="E" unicode="E" horiz-adv-x="627" 
d="M87 14v634h-70v14h490l12 -161h-15q-8 89 -49 118t-143 29h-125v-304h31q82 0 113 22.5t31 90.5v4h14v-248h-14v8q0 69 -29 88.5t-115 19.5h-31v-315h128q125 0 176 37.5t51 138.5v3h14v-193h-539v14h70z" />
    <glyph glyph-name="F" unicode="F" horiz-adv-x="572" 
d="M19 0v14h77v634h-77v14h501l14 -169h-16q-7 90 -55 122.5t-163 32.5h-104v-304h26q93 0 125 22t32 99v4h14v-256h-14q-1 75 -32 96t-125 21h-26v-316h81v-14h-258z" />
    <glyph glyph-name="G" unicode="G" horiz-adv-x="657" 
d="M585 87q-113 -101 -242 -101q-141 0 -226.5 92t-85.5 248q0 169 103 266q89 84 200 84q49 0 95 -20q20 -9 48.5 -29t38.5 -20q30 0 30 41v7h13v-202h-14q-12 96 -69 152.5t-136 56.5q-90 0 -145.5 -82.5t-55.5 -229.5q0 -350 205 -350q141 0 141 150v48h-79v14h247v-14
h-68v-111z" />
    <glyph glyph-name="H" unicode="H" horiz-adv-x="713" 
d="M12 0v14h74v634h-74v14h250v-14h-77v-296h343v296h-77v14h250v-14h-74v-634h74v-14h-250v14h77v324h-343v-324h77v-14h-250z" />
    <glyph glyph-name="I" unicode="I" horiz-adv-x="271" 
d="M12 0v14h75v634h-75v14h247v-14h-71v-634h71v-14h-247z" />
    <glyph glyph-name="J" unicode="J" horiz-adv-x="345" 
d="M143 648h-77v14h248v-14h-72v-483q0 -123 -34.5 -180.5t-119.5 -57.5q-51 0 -85 24.5t-34 59.5q0 24 15 39.5t38 15.5q19 0 30.5 -12t11.5 -31q0 -38 -45 -46q9 -33 57 -33q38 0 52.5 29t14.5 93v582z" />
    <glyph glyph-name="K" unicode="K" horiz-adv-x="519" 
d="M-14 0v14h76v634h-76v14h248v-14h-71v-306l230 226q41 40 41 58q0 13 -15 17t-55 5h-13v14h237v-14h-6q-35 0 -65 -12t-48 -26.5t-52 -45.5l-180 -168l309 -382h71v-14h-269v14h81l-256 318l-10 -10v-308h71v-14h-248z" />
    <glyph glyph-name="L" unicode="L" horiz-adv-x="576" 
d="M12 0v14h75v634h-75v14h247v-14h-71v-634h112q144 0 197 36t53 148v18h14v-216h-552z" />
    <glyph glyph-name="M" unicode="M" horiz-adv-x="764" 
d="M12 0v14q53 1 63.5 12.5t10.5 57.5v564h-74v14h171l203 -499l195 499h172v-14h-72v-634h72v-14h-248v14h76v602l-235 -602h-8l-232 576v-506q0 -47 13.5 -58.5t73.5 -11.5v-14h-181z" />
    <glyph glyph-name="N" unicode="N" horiz-adv-x="660" 
d="M106 91q0 -47 15 -60.5t73 -16.5v-14h-183v14q49 4 61.5 18t12.5 60v556h-74v14h189l354 -485v394q0 47 -15 60.5t-73 16.5v14h182v-14q-49 -4 -61.5 -18t-12.5 -60v-575h-11l-457 624v-528z" />
    <glyph glyph-name="O" unicode="O" horiz-adv-x="657" 
d="M32 331q0 142 82 238q92 107 215 107t215 -107q81 -94 81 -238q0 -143 -81 -238q-92 -107 -215 -107t-215 107q-82 96 -82 238zM141 331q0 -158 51 -244.5t137 -86.5t136.5 86t50.5 245t-50.5 245t-136.5 86t-137 -86.5t-51 -244.5z" />
    <glyph glyph-name="P" unicode="P" horiz-adv-x="549" 
d="M12 0v14h76v634h-76v14h259q124 0 188.5 -47t64.5 -135q0 -86 -62.5 -139.5t-163.5 -53.5q-51 0 -111 17v-290h72v-14h-247zM187 649v-326q53 -18 94 -18q67 0 107 44.5t40 121.5q0 179 -213 179q-4 0 -13.5 -0.5t-14.5 -0.5z" />
    <glyph glyph-name="Q" unicode="Q" horiz-adv-x="657" 
d="M141 331q0 -158 51 -244.5t137 -86.5t136.5 86t50.5 245t-50.5 245t-136.5 86t-137 -86.5t-51 -244.5zM278 -9q-113 28 -179.5 119t-66.5 221q0 142 82 238q92 107 215 107t215 -107q81 -94 81 -238q0 -131 -67.5 -222.5t-182.5 -117.5v-74q0 -58 22 -85t71 -27
q30 0 62 17l5 -13q-51 -24 -99 -24q-76 0 -117 37t-41 103v66z" />
    <glyph glyph-name="R" unicode="R" horiz-adv-x="604" 
d="M12 0v14h75v634h-75v14h278q230 0 230 -157q0 -68 -47.5 -108t-139.5 -49q86 -13 122.5 -50t45.5 -119q2 -16 4 -41t3.5 -37t4 -29.5t6 -25.5t9.5 -17t15 -12t21 -3q19 0 36 7l6 -13q-45 -15 -89 -15q-60 0 -91 47q-10 16 -16.5 38.5t-9 41t-6 52.5t-6.5 54
q-9 64 -44.5 87.5t-121.5 23.5h-33v-323h70v-14h-247zM189 648v-296h33q196 0 196 145q0 81 -38.5 116t-122.5 35h-68z" />
    <glyph glyph-name="S" unicode="S" horiz-adv-x="495" 
d="M46 237h14q7 -111 63 -173.5t142 -62.5q69 0 115 43.5t46 107.5q0 55 -42 91q-16 15 -45.5 25.5t-48 14.5t-71.5 14q-90 18 -131 59t-41 124q0 90 49.5 143t132.5 53q39 0 74.5 -14t58 -28.5t28.5 -14.5q25 0 25 33v5h14v-195h-14q-12 96 -61 148t-125 52
q-66 0 -102.5 -34.5t-36.5 -98.5q0 -71 53 -104q13 -8 35.5 -12.5t60 -10.5t66.5 -13q88 -21 127 -63.5t39 -122.5q0 -98 -55.5 -157t-147.5 -59q-54 0 -115.5 26t-68.5 26q-22 0 -24 -39h-14v237z" />
    <glyph glyph-name="T" unicode="T" horiz-adv-x="597" 
d="M585 662v-193h-14v25q0 88 -22 116q-20 24 -55 31t-104 7h-42v-634h73v-14h-247v14h73v634h-41q-69 0 -104.5 -7t-55.5 -31q-22 -28 -22 -116v-25h-14v193h575z" />
    <glyph glyph-name="U" unicode="U" horiz-adv-x="657" 
d="M82 648h-76v14h261v-14h-82v-437q0 -109 21 -140q41 -61 150 -61q114 0 167 71q20 26 25 56.5t5 81.5v345q0 58 -11.5 71t-69.5 13h-17v14h196v-14h-8q-50 0 -61 -14.5t-11 -70.5v-340q0 -39 -1.5 -60t-8 -47t-20.5 -45q-60 -85 -213 -85q-140 0 -203 66
q-28 29 -35.5 65.5t-7.5 103.5v427z" />
    <glyph glyph-name="V" unicode="V" horiz-adv-x="493" 
d="M-65 648v14h256v-14h-81l176 -509l151 434q13 36 13 46q0 16 -15 21.5t-56 7.5v14h183v-14q-54 -2 -71 -13.5t-31 -53.5l-211 -600l-5 -3l-240 670h-69z" />
    <glyph glyph-name="W" unicode="W" horiz-adv-x="738" 
d="M356 648l56 -159l29 84q12 35 12 47q0 28 -48 28h-49zM7 648h-69v14h215v-14h-40l176 -509l70 201l-109 308h-69v14h384v-14q-54 -2 -70.5 -13.5t-31.5 -53.5l-42 -121l110 -321l152 434q12 33 12 46q0 16 -14.5 21.5t-55.5 7.5v14h182v-14q-53 -2 -69.5 -14t-31.5 -53
l-211 -600l-5 -3l-121 334l-117 -331l-5 -3z" />
    <glyph glyph-name="X" unicode="X" horiz-adv-x="544" 
d="M-69 0v14q60 0 83.5 10t45.5 45l164 256l-186 323h-67v14h245v-14h-59l129 -226l90 140q31 49 31 61q0 11 -7.5 16t-21 6.5t-40.5 2.5h-5v14h185v-14q-46 0 -65.5 -14.5t-45.5 -55.5l-111 -175l218 -389h59v-14h-251v14h73l-162 291l-131 -205q-32 -49 -32 -61
q0 -16 11.5 -20t45.5 -5h9v-14h-205z" />
    <glyph glyph-name="Y" unicode="Y" horiz-adv-x="495" 
d="M114 0v14h86v236l-177 398h-78v14h255v-14h-71l160 -356l129 292q10 23 10 36q0 28 -57 28h-9v14h170v-14h-15q-32 0 -46.5 -11t-28.5 -43l-144 -325v-255h85v-14h-269z" />
    <glyph glyph-name="Z" unicode="Z" horiz-adv-x="597" 
d="M21 0l395 648h-110q-134 0 -185.5 -26.5t-51.5 -112.5q0 -17 1 -26h-14v179h486l-401 -648h128q145 0 202.5 31.5t57.5 126.5q0 4 -0.5 11t-0.5 10h14v-193h-521z" />
    <glyph glyph-name="bracketleft" unicode="[" horiz-adv-x="324" 
d="M312 -213h-217v875h217v-15h-148v-843h148v-17z" />
    <glyph glyph-name="backslash" unicode="\" horiz-adv-x="278" 
d="M306 -93h-26l-280 769h27z" />
    <glyph glyph-name="bracketright" unicode="]" horiz-adv-x="324" 
d="M12 -213v17h148v843h-148v15h217v-875h-217z" />
    <glyph glyph-name="asciicircum" unicode="^" horiz-adv-x="1000" 
d="M456 714h87l254 -276h-45l-253 213l-254 -213h-44z" />
    <glyph glyph-name="underscore" unicode="_" 
d="M0 -178h500v-58h-500v58z" />
    <glyph glyph-name="grave" unicode="`" 
d="M336 464h-33l-161 100q-30 20 -30 40q0 15 10 25t26 10q18 0 47 -29z" />
    <glyph glyph-name="a" unicode="a" horiz-adv-x="440" 
d="M280 73v135q-11 1 -30 1q-136 0 -136 -110q0 -43 18.5 -66t51.5 -23q29 0 55 17t41 46zM450 43q-42 -52 -86 -52q-66 0 -80 63q-39 -66 -142 -66q-50 0 -82.5 29t-32.5 71q0 64 64 99.5t184 35.5h5v101q0 37 -18 54.5t-59 17.5q-36 0 -61 -17.5t-25 -31.5q0 -3 7 -8
t14 -14.5t7 -21.5q0 -22 -11.5 -34.5t-31.5 -12.5q-21 0 -33.5 13t-12.5 34q0 44 42 75.5t107 31.5q63 0 112 -35q27 -20 34 -39.5t7 -56.5v-201q0 -63 30 -63q22 0 51 38z" />
    <glyph glyph-name="b" unicode="b" horiz-adv-x="493" 
d="M5 14h58v634h-58v14h49q52 0 93 24v-368q20 45 55 68.5t78 23.5q72 0 126.5 -61t54.5 -149q0 -95 -53.5 -153.5t-136.5 -58.5q-77 0 -125 78v-66h-141v14zM147 282v-180q42 -99 129 -99q51 0 72.5 33.5t21.5 106.5v115q0 135 -96 135q-41 0 -74.5 -29t-52.5 -82z" />
    <glyph glyph-name="c" unicode="c" horiz-adv-x="391" 
d="M373 133q-7 -68 -46.5 -106.5t-100.5 -38.5q-87 0 -141.5 55.5t-54.5 143.5q0 95 60.5 159.5t146.5 64.5q55 0 92.5 -27t37.5 -64q0 -17 -14.5 -31t-33.5 -14t-31.5 13.5t-12.5 32.5q0 13 6.5 24.5t13.5 18.5t7 8q0 4 -7.5 10.5t-23 12t-33.5 5.5q-57 0 -88 -36
q-20 -23 -25.5 -52t-5.5 -79v-64q0 -91 27 -127q28 -36 83 -36q115 0 129 127h15z" />
    <glyph glyph-name="d" unicode="d" horiz-adv-x="493" 
d="M344 66q-51 -78 -125 -78q-83 0 -136.5 58.5t-53.5 153.5q0 87 54.5 148t126.5 61q90 0 133 -92v331h-57v14h48q51 0 93 24v-672h58v-14h-141v66zM120 142q0 -73 21.5 -106t72.5 -33q88 0 129 99v179q-19 53 -52.5 81.5t-74.5 28.5q-96 0 -96 -134v-115z" />
    <glyph glyph-name="e" unicode="e" horiz-adv-x="391" 
d="M114 239v-116q0 -62 23.5 -90.5t76.5 -28.5q52 0 90 34t54 95h15q-18 -69 -61 -107.5t-102 -38.5q-76 0 -131.5 60t-55.5 149q0 92 50 153t121 61q68 0 117.5 -48t54.5 -123h-252zM114 253h154v47q0 96 -78 96q-76 0 -76 -110v-33z" />
    <glyph glyph-name="f" unicode="f" horiz-adv-x="264" 
d="M23 0v14h58v370h-58v14h58q-1 15 -1 42q0 120 37.5 183.5t105.5 63.5q37 0 60.5 -24t23.5 -58q0 -22 -13 -35t-35 -13q-17 0 -27 11t-10 29t23.5 32.5t23.5 21.5q0 9 -12 15t-32 6q-37 0 -50 -34.5t-13 -114.5v-125h88v-14h-88v-370h57v-14h-196z" />
    <glyph glyph-name="g" unicode="g" horiz-adv-x="442" 
d="M107 -21q-34 3 -55.5 30t-21.5 65q0 83 95 88q-72 48 -72 110q0 58 45 98t115 40q65 0 105 -40q32 38 73 38q21 0 34.5 -11.5t13.5 -28.5q0 -15 -9 -24t-25 -9t-26.5 8.5t-10.5 20.5q0 16 13 29q-27 -4 -53 -32q37 -44 37 -90q0 -57 -45.5 -97t-108.5 -40q-16 0 -46 7.5
t-44 7.5q-31 0 -51 -15t-20 -35q0 -26 23.5 -33t84.5 -7h84q96 0 134 -23t38 -97q0 -82 -59 -135.5t-154 -53.5q-87 0 -138 34t-51 86q0 68 95 109zM128 258q0 -57 20 -83.5t64 -26.5q46 0 62.5 30t16.5 99q0 63 -18.5 92t-61.5 29q-47 0 -65 -32t-18 -108zM268 -18h-88
q-57 0 -87.5 -28t-30.5 -78q0 -51 37 -80.5t101 -29.5q83 0 137.5 45t54.5 105q0 39 -29 52.5t-95 13.5z" />
    <glyph glyph-name="h" unicode="h" horiz-adv-x="486" 
d="M12 0v14h57v634h-57v14h48q53 0 93 24v-365q55 89 141 89q59 0 93 -33.5t34 -91.5v-271h58v-14h-197v14h56v300q0 42 -11.5 59.5t-43.5 17.5q-77 0 -130 -98v-279h55v-14h-196z" />
    <glyph glyph-name="i" unicode="i" horiz-adv-x="222" 
d="M66 637q0 18 13 31.5t31 13.5q19 0 31.5 -13t12.5 -32t-12.5 -31.5t-31.5 -12.5t-31.5 13t-12.5 31zM69 384h-57v14h48q63 0 93 12v-396h55v-14h-196v14h57v370z" />
    <glyph glyph-name="j" unicode="j" horiz-adv-x="222" 
d="M70 637q0 18 13 31.5t31 13.5q19 0 31.5 -13t12.5 -32t-12.5 -31.5t-31.5 -12.5t-31.5 13t-12.5 31zM74 384h-58v14h48q63 0 93 12v-417q0 -117 -38.5 -179t-105.5 -62q-37 0 -60 23.5t-23 58.5q0 22 12.5 34.5t34.5 12.5q16 0 27 -10.5t11 -26.5q0 -21 -24 -35t-24 -21
q0 -9 12 -15t32 -6q39 0 51 35.5t12 122.5v459z" />
    <glyph glyph-name="k" unicode="k" horiz-adv-x="463" 
d="M12 0v14h57v634h-57v14h48q50 0 94 24v-517l129 128q48 46 48 59q0 15 -46 15h-14v14h168v-14h-7q-45 0 -91 -43l-97 -93l175 -221h56v-14h-212v14h50l-124 166l-35 -35v-131h54v-14h-196z" />
    <glyph glyph-name="l" unicode="l" horiz-adv-x="222" 
d="M12 0v14h57v634h-57v14h48q53 0 93 24v-672h55v-14h-196z" />
    <glyph glyph-name="m" unicode="m" horiz-adv-x="755" 
d="M69 384h-57v14h48q63 0 93 12v-89q55 89 141 89q50 0 83 -25t41 -69q58 94 145 94q59 0 93 -33.5t34 -91.5v-271h58v-14h-197v14h56v300q0 42 -11.5 59.5t-43.5 17.5q-73 0 -131 -98v-279h58v-14h-197v14h56v300q0 42 -11.5 59.5t-43.5 17.5q-77 0 -130 -98v-279h55v-14
h-196v14h57v370z" />
    <glyph glyph-name="n" unicode="n" horiz-adv-x="486" 
d="M12 0v14h57v370h-57v14h48q63 0 93 12v-89q55 89 141 89q59 0 93 -33.5t34 -91.5v-271h58v-14h-197v14h56v300q0 42 -11.5 59.5t-43.5 17.5q-77 0 -130 -98v-279h55v-14h-196z" />
    <glyph glyph-name="o" unicode="o" horiz-adv-x="435" 
d="M113 139q0 -136 105 -136q54 0 79 33.5t25 102.5v121q0 69 -25 102.5t-79 33.5q-105 0 -105 -136v-121zM23 199q0 86 61 150q58 61 134 61q78 0 136 -63t58 -148q0 -84 -61 -150q-55 -60 -133 -60q-77 0 -134 60q-61 64 -61 150z" />
    <glyph glyph-name="p" unicode="p" horiz-adv-x="493" 
d="M147 -227h58v-14h-199v14h58v611h-58v14h48q62 0 93 12v-92q20 45 55 68.5t78 23.5q72 0 127 -61.5t55 -148.5q0 -95 -53.5 -153.5t-136.5 -58.5q-77 0 -125 78v-293zM147 282v-180q41 -99 130 -99q51 0 72.5 33.5t21.5 106.5v115q0 135 -96 135q-41 0 -75 -29t-53 -82z
" />
    <glyph glyph-name="q" unicode="q" horiz-adv-x="493" 
d="M346 -227v293q-48 -78 -125 -78q-83 0 -136.5 58.5t-53.5 153.5q0 88 54.5 149t126.5 61q43 0 78 -23.5t55 -68.5v92q32 -12 93 -12h49v-14h-58v-611h58v-14h-199v14h58zM345 282q-19 53 -52.5 82t-74.5 29q-96 0 -96 -135v-115q0 -73 21.5 -106.5t72.5 -33.5
q88 0 129 99v180z" />
    <glyph glyph-name="r" unicode="r" horiz-adv-x="333" 
d="M12 0v14h57v370h-57v14h48q63 0 93 12v-104q42 104 110 104q29 0 46.5 -14.5t17.5 -37.5q0 -22 -11 -35t-29 -13t-31.5 12.5t-13.5 29.5t19 39q-8 2 -12 2q-28 0 -55 -38.5t-41 -106.5v-234h55v-14h-196z" />
    <glyph glyph-name="s" unicode="s" horiz-adv-x="329" 
d="M35 -3v140h10q18 -69 48 -100.5t78 -31.5q42 0 66 24.5t24 67.5q0 36 -25 56t-72 20q-61 0 -95 30.5t-34 83.5q0 52 31.5 87t79.5 35q25 0 47 -6.5t34 -13t14 -6.5q12 0 12 17q0 6 -1 10h16v-117h-11q-22 103 -109 103q-36 0 -59 -21t-23 -52q0 -26 18 -46q9 -9 22.5 -14
t25 -6.5t32.5 -3t34 -3.5q51 -7 78.5 -39t27.5 -82q0 -64 -35 -103t-91 -39q-31 0 -56 9.5t-39 19t-17 9.5q-17 0 -17 -28h-14z" />
    <glyph glyph-name="t" unicode="t" horiz-adv-x="289" 
d="M149 70q0 -32 9.5 -46.5t33.5 -14.5q52 0 71 55h15q-23 -76 -101 -76q-50 0 -82 30q-22 21 -22 67v299h-69v14q59 0 90.5 32t42.5 101h12v-133h111v-14h-111v-314z" />
    <glyph glyph-name="u" unicode="u" horiz-adv-x="484" 
d="M335 384h-58v14h48q63 0 93 12v-396h56v-14h-140v89q-59 -89 -143 -89q-59 0 -93.5 33.5t-34.5 91.5v259h-57v14h48q63 0 93 12v-315q0 -40 13.5 -58t45.5 -18q69 0 129 98v267z" />
    <glyph glyph-name="v" unicode="v" horiz-adv-x="440" 
d="M45 384h-42v14h186v-14h-57l119 -281l92 225q8 19 8 31q0 16 -13 20t-51 5v14h139v-14h-6q-22 0 -36 -17.5t-32 -61.5l-128 -312l-8 -5z" />
    <glyph glyph-name="w" unicode="w" horiz-adv-x="660" 
d="M3 384v14h186v-14h-57l119 -281l69 167l-50 114h-64v14h220v-14h-68l118 -281l92 225q9 22 9 31q0 15 -13.5 19.5t-51.5 5.5v14h139v-14h-6q-23 0 -35.5 -17t-31.5 -62l-129 -312l-8 -5l-112 259l-105 -254l-8 -5l-172 396h-41z" />
    <glyph glyph-name="x" unicode="x" horiz-adv-x="435" 
d="M18 384v14h195v-14h-50l73 -121l56 71q14 18 14 28q0 22 -48 22v14h147v-14h-5q-26 0 -42.5 -6.5t-23.5 -14t-22 -26.5l-68 -88l143 -235h49v-14h-209v14h66l-95 158l-73 -92q-22 -28 -22 -42q0 -24 46 -24h6v-14h-156v14h8q23 0 41 9.5t27.5 19.5t28.5 35l85 108
l-119 198h-52z" />
    <glyph glyph-name="y" unicode="y" horiz-adv-x="440" 
d="M264 68q-20 -53 -43.5 -138t-24.5 -90q-15 -48 -35 -68.5t-54 -20.5q-21 0 -35 14.5t-14 35.5q0 19 12.5 32t30.5 13t30 -13t12 -32q0 -1 -0.5 -5t-0.5 -7q0 -2 3 -2q18 0 33.5 45t38.5 153l-172 399h-42v14h186v-14h-57l123 -294l88 238q8 21 8 33q0 15 -16 18.5
t-66 4.5v14h157v-14h-5q-22 0 -37 -18.5t-32 -61.5z" />
    <glyph glyph-name="z" unicode="z" horiz-adv-x="382" 
d="M12 0l246 384h-97q-59 0 -82.5 -25.5t-23.5 -90.5v-19h-15v149h328l-253 -384h99q117 0 117 124v10h13v-148h-332z" />
    <glyph glyph-name="braceleft" unicode="{" 
d="M413 740v-25q-72 -1 -96 -28.5t-24 -100.5v-70q0 -102 -26.5 -146t-113.5 -60q87 -16 113.5 -60t26.5 -146v-70q0 -73 24 -100t96 -28v-25h-5q-107 0 -146 36.5t-39 132.5v104q0 76 -28 105.5t-109 36.5v29q82 7 109.5 36.5t27.5 105.5v104q0 96 39 132.5t146 36.5h5z
" />
    <glyph glyph-name="bar" unicode="|" 
d="M219 764h62v-1000h-62v1000z" />
    <glyph glyph-name="braceright" unicode="}" 
d="M87 740h5q106 0 145.5 -36.5t39.5 -132.5v-104q0 -76 27.5 -105.5t109.5 -36.5v-29q-81 -7 -109 -36.5t-28 -105.5v-104q0 -96 -39.5 -132.5t-145.5 -36.5h-5v25q72 1 96 28t24 100v70q0 102 26.5 146t113.5 60q-87 16 -113.5 60t-26.5 146v70q0 73 -24 100.5t-96 28.5
v25z" />
    <glyph glyph-name="asciitilde" unicode="~" horiz-adv-x="833" 
d="M747 370v-64q-98 -70 -189 -70q-42 0 -93 17l-48.5 17t-51 17t-42.5 10.5t-48 5.5q-77 0 -188 -78v65q103 71 189 71q52 0 142 -32q5 -2 19.5 -7t21 -7.5t19 -6.5t20.5 -6t19 -4t21.5 -3t20.5 -1q79 0 188 76z" />
    <glyph glyph-name="exclamdown" unicode="&#xa1;" horiz-adv-x="329" 
d="M156 519h16v-27q0 -282 43 -403q-30 -44 -50 -103q-22 59 -52 103q43 121 43 403v27zM211 631q0 -18 -12.5 -31t-31.5 -13t-31.5 12.5t-12.5 31.5t13 32t31 13q19 0 31.5 -13t12.5 -32z" />
    <glyph glyph-name="cent" unicode="&#xa2;" horiz-adv-x="481" 
d="M238 -85v85q-88 7 -137 59.5t-49 137.5q0 86 51.5 147.5t134.5 72.5v79h18v-77q61 -1 97 -27t36 -64q0 -17 -14 -30.5t-33 -13.5t-32 13t-13 32q0 13 6.5 24.5t13.5 18.5t7 8q0 4 -7 10t-21.5 11t-31.5 5h-8v-390q54 2 86.5 34.5t38.5 92.5h14q-8 -65 -44 -102.5
t-95 -40.5v-85h-18zM238 17v389q-64 -13 -80.5 -54.5t-16.5 -140.5q0 -102 17 -144t80 -50z" />
    <glyph glyph-name="sterling" unicode="&#xa3;" horiz-adv-x="481" 
d="M40 309v18h89q-67 86 -67 163q0 75 54.5 124.5t138.5 49.5q70 0 110 -32.5t40 -85.5q0 -37 -16.5 -61t-40.5 -24q-21 0 -35 14t-14 34q0 19 11.5 32.5t27.5 13.5q3 0 7.5 -0.5t6.5 -0.5q24 0 24 23q0 24 -30.5 46t-71.5 22q-55 0 -91 -41.5t-36 -109.5q0 -74 37 -167h195
v-18h-192q18 -48 18 -107q0 -34 -7 -62q49 -15 96 -38l75 -37.5t42 -14.5q28 0 57 41l10 -8q-52 -95 -110 -95q-27 0 -54.5 11t-71 36t-67.5 37q-45 -79 -96 -79q-24 0 -40 16t-16 39q0 40 35 69t88 29q16 0 38 -3q2 22 2 33q0 68 -45 133h-101zM160 82q-33 15 -58 15
q-28 0 -43.5 -12.5t-15.5 -35.5q0 -17 10.5 -27.5t27.5 -10.5q39 0 79 71z" />
    <glyph glyph-name="currency" unicode="&#xa4;" horiz-adv-x="481" 
d="M443 235h13v-220h-13q-3 46 -24 46q-10 0 -24.5 -11.5t-28.5 -25t-39 -25t-54 -11.5q-79 0 -150 79.5t-84 199.5h-51l10 24h39v30q0 18 2 41h-54l11 24h46q20 129 85 203.5t149 74.5q37 0 67.5 -16t49.5 -32.5t29 -16.5q21 0 21 39h13v-194h-13q-6 92 -54.5 149.5
t-108.5 57.5q-66 0 -108 -69.5t-42 -187.5v-8h208l-10 -24h-199v-71h167l-10 -24h-157q0 -125 41.5 -195t105.5 -70q60 0 113 66t54 167z" />
    <glyph glyph-name="yen" unicode="&#xa5;" horiz-adv-x="535" 
d="M153 0v14h83v232l-24 55h-194v23h184l-32 72h-152v23h141l-97 220h-77v14h233v-14h-69l157 -351l128 288q9 21 9 35q0 28 -56 28h-9v14h168v-14h-14q-32 0 -47 -11.5t-28 -42.5l-73 -166h132v-23h-143l-31 -72h174v-23h-185l-16 -35v-252h84v-14h-246z" />
    <glyph glyph-name="brokenbar" unicode="&#xa6;" 
d="M219 699h62v-370h-62v370zM219 199h62v-370h-62v370z" />
    <glyph glyph-name="section" unicode="&#xa7;" 
d="M136 394q-42 45 -42 102q0 72 49.5 126t118.5 54q62 0 100.5 -31t38.5 -76q0 -28 -15.5 -45t-38.5 -17q-19 0 -31.5 13.5t-12.5 32.5t11.5 30.5t30.5 11.5q10 0 19.5 -4.5t10.5 -4.5q6 0 6 3q0 23 -35 48.5t-83 25.5q-51 0 -86.5 -35.5t-35.5 -85.5q0 -21 6.5 -36
t23 -27.5t31 -20.5t45.5 -22q110 -50 155 -88t45 -100q0 -83 -93 -172q66 -48 66 -118q0 -84 -50 -136.5t-133 -52.5q-66 0 -108.5 34.5t-42.5 81.5q0 27 17 46t39 19q20 0 33 -13.5t13 -35.5q0 -16 -12 -27.5t-29 -11.5q-6 0 -15 3t-12 3q-8 0 -8 -7q0 -28 35.5 -52.5
t86.5 -24.5q65 0 105 34.5t40 87.5q0 17 -4 30.5t-18 27l-23.5 22t-38 23t-42.5 21l-55 25.5q-46 21 -67 32.5t-46 31t-34.5 43t-9.5 55.5q0 82 95 177zM147 386q-72 -69 -72 -114q0 -54 69 -90l77.5 -37.5l120.5 -59.5q65 57 65 115q0 26 -13 43.5t-42 36.5
q-34 23 -104.5 54.5t-100.5 51.5z" />
    <glyph glyph-name="dieresis" unicode="&#xa8;" 
d="M109 562q0 20 14.5 34.5t33.5 14.5t34 -14.5t15 -34.5q0 -21 -14 -34.5t-35 -13.5q-20 0 -34 13.5t-14 34.5zM295 562q0 20 14.5 34.5t33.5 14.5t34 -14.5t15 -34.5q0 -21 -14 -34.5t-35 -13.5q-20 0 -34 13.5t-14 34.5z" />
    <glyph glyph-name="copyright" unicode="&#xa9;" horiz-adv-x="822" 
d="M412 675q141 0 241 -100q48 -47 74.5 -111.5t26.5 -132.5q0 -140 -101 -243q-98 -100 -242 -100q-142 0 -242 100q-101 99 -101 243q0 141 100 243q99 101 244 101zM412 636q-126 0 -214 -90t-88 -215q0 -126 89 -215q88 -88 212 -88q126 0 212 88q89 91 89 215
q0 128 -88 216q-89 89 -212 89zM547 535h17l1 -153h-20q-33 134 -137 134q-121 0 -121 -182q0 -186 130 -186q83 0 138 85l17 -12q-57 -102 -167 -102q-82 0 -139.5 60t-57.5 145q0 92 57 153t139 61q36 0 72 -16.5t40 -16.5q25 0 31 30z" />
    <glyph glyph-name="ordfeminine" unicode="&#xaa;" horiz-adv-x="330" 
d="M210 435v95h-22q-102 0 -102 -77q0 -62 52 -62q48 0 72 44zM338 414q-32 -36 -65 -36q-49 0 -60 44q-28 -46 -106 -46q-38 0 -62.5 20t-24.5 50q0 44 48 69t138 25h4v71q0 26 -13.5 38t-44.5 12q-27 0 -45.5 -12t-18.5 -22q0 -1 10.5 -10t10.5 -21q0 -15 -9 -24t-23 -9
q-16 0 -25.5 9t-9.5 24q0 30 31.5 52.5t80.5 22.5t84 -25q20 -13 25.5 -27t5.5 -40v-140q0 -45 22 -45q16 0 38 27z" />
    <glyph glyph-name="guillemotleft" unicode="&#xab;" horiz-adv-x="444" 
d="M54 200q115 106 159 152h14q-26 -50 -111 -152q85 -102 111 -152h-14q-44 46 -159 152zM219 200q115 106 159 152h13q-27 -53 -110 -152q83 -99 110 -152h-13q-44 46 -159 152z" />
    <glyph glyph-name="logicalnot" unicode="&#xac;" horiz-adv-x="833" 
d="M124 419h585v-245h-56v188h-529v57z" />
    <glyph glyph-name="registered" unicode="&#xae;" horiz-adv-x="822" 
d="M412 675q142 0 243 -101q99 -99 99 -244q0 -140 -104 -244q-98 -98 -242 -98q-137 0 -239 100q-101 99 -101 243q0 141 100 243q99 101 244 101zM412 636q-124 0 -214 -90q-88 -90 -88 -215q0 -126 89 -215q88 -88 212 -88q126 0 212 88q89 91 89 215q0 60 -23 117.5
t-65 98.5q-89 89 -212 89zM229 533h192q73 0 114 -27t41 -71q0 -37 -34 -60.5t-106 -36.5q46 -14 69.5 -38t34.5 -65q2 -10 5.5 -34t9 -32t19.5 -8q33 0 33 65h21v-6q0 -87 -78 -87q-46 0 -62 32q-9 19 -10.5 55.5t-4.5 46.5q-19 65 -101 65h-16v-121q0 -27 13 -37t48 -12
v-20h-188v20q35 1 48.5 11.5t13.5 37.5v252q0 27 -13 37t-49 12v21zM356 351q16 -1 32 -1q56 0 85.5 22.5t29.5 62.5q0 35 -25.5 57t-70.5 22q-51 0 -51 -35v-128z" />
    <glyph glyph-name="macron" unicode="&#xaf;" 
d="M124 509v61h252v-61h-252z" />
    <glyph glyph-name="degree" unicode="&#xb0;" horiz-adv-x="329" 
d="M165 710q57 0 97.5 -40.5t40.5 -97.5t-40.5 -97.5t-98.5 -40.5t-97.5 40t-39.5 98t40.5 98t97.5 40zM165 670q-41 0 -70 -28.5t-29 -69.5q0 -42 29 -70.5t70 -28.5q42 0 70 29t28 70t-28.5 69.5t-69.5 28.5z" />
    <glyph glyph-name="plusminus" unicode="&#xb1;" horiz-adv-x="833" 
d="M388 576h58v-168h263v-57h-263v-168h-58v168h-264v57h264v168zM124 77h585v-57h-585v57z" />
    <glyph glyph-name="twosuperior" unicode="&#xb2;" horiz-adv-x="317" 
d="M13 261q3 8 7.5 16.5t12.5 18l13.5 16t18.5 18.5l19 17.5l23 20.5t23 21q48 43 70.5 78t22.5 81q0 47 -25.5 73.5t-68.5 26.5q-37 0 -65 -22t-28 -45q0 -9 5 -12.5t19 -4.5q32 -2 32 -25q0 -12 -9 -21t-22 -9q-18 0 -30 14.5t-12 36.5q0 41 35.5 69.5t91.5 28.5
q63 0 100.5 -30.5t37.5 -80.5q0 -38 -24.5 -68t-79.5 -71l-30.5 -22t-34 -25t-28.5 -24t-30 -29h220l11 62h10l-18 -109h-267z" />
    <glyph glyph-name="threesuperior" unicode="&#xb3;" horiz-adv-x="317" 
d="M71 486q10 -1 27 -1q66 0 94 19t28 68q0 37 -20.5 57.5t-57.5 20.5q-33 0 -57.5 -13t-24.5 -26q0 -5 13 -5h5q10 0 17 -6.5t7 -15.5q0 -12 -8 -20t-19 -8q-35 0 -35 36q0 28 29.5 47t77.5 19q59 0 92 -23.5t33 -64.5q0 -34 -27.5 -57.5t-76.5 -28.5q60 -8 92 -37t32 -73
q0 -49 -45.5 -84.5t-111.5 -35.5q-56 0 -89 21.5t-33 55.5q0 18 11 30t28 12q13 0 22.5 -9t9.5 -20q0 -13 -8.5 -21t-20.5 -8q-4 0 -9.5 1t-7.5 1q-6 0 -6 -10q0 -14 28 -29t67 -15q52 0 80 27.5t28 79.5q0 58 -30.5 84t-96.5 26q-11 0 -37 -2v8z" />
    <glyph glyph-name="acute" unicode="&#xb4;" 
d="M164 464l141 146q29 29 47 29q16 0 26 -10t10 -25q0 -20 -30 -40l-161 -100h-33z" />
    <glyph glyph-name="mu" unicode="&#xb5;" horiz-adv-x="547" 
d="M80 94q-10 -51 -17.5 -106.5t-11 -85.5t-9.5 -57t-15.5 -38t-26.5 -11q-18 0 -28.5 11.5t-10.5 31.5q0 17 11.5 60l33 123t38.5 159l53 251h72l-51 -240q-6 -30 -6 -55q0 -40 20.5 -62.5t57.5 -22.5q97 0 126 131l54 249h73l-56 -259q-10 -48 -10 -67q0 -24 12.5 -38.5
t32.5 -14.5q35 0 57 34q7 11 13 26t9 25t7 17t10 7q13 0 13 -18q0 -29 -20 -73q-36 -80 -112 -80q-33 0 -53 24.5t-20 68.5v11q-45 -106 -137 -106q-95 0 -109 105z" />
    <glyph glyph-name="paragraph" unicode="&#xb6;" 
d="M463 722v-38h-61v-684h-46v684h-90v-684h-46v382q-85 4 -134 50.5t-49 119.5q0 76 52 123t140 47h234z" />
    <glyph glyph-name="periodcentered" unicode="&#xb7;" horiz-adv-x="241" 
d="M76 326q0 18 13 31.5t31 13.5q19 0 32 -13t13 -32t-13 -31.5t-32 -12.5t-31.5 13t-12.5 31z" />
    <glyph glyph-name="cedilla" unicode="&#xb8;" 
d="M126 -167l10 20q71 -27 104 -27q22 0 35 13t13 35q0 21 -11 33.5t-30 12.5q-4 0 -14 -2v82h17v-61q7 1 21 1q44 0 68 -18t24 -49q0 -30 -29.5 -49.5t-78.5 -19.5q-50 0 -129 29z" />
    <glyph glyph-name="onesuperior" unicode="&#xb9;" horiz-adv-x="318" 
d="M92 261v10h54v306q0 21 -6 21q-21 0 -100 -45l-2 10q92 50 142 90h22v-382h49v-10h-159z" />
    <glyph glyph-name="ordmasculine" unicode="&#xba;" horiz-adv-x="326" 
d="M85 481q0 -95 79 -95q78 0 78 95v85q0 95 -78 95q-79 0 -79 -95v-85zM17 523q0 61 46 105q45 43 101 43q59 0 102 -44t43 -104q0 -59 -46 -105q-41 -42 -99 -42t-101 42q-46 46 -46 105z" />
    <glyph glyph-name="guillemotright" unicode="&#xbb;" horiz-adv-x="444" 
d="M388 200q-115 -106 -159 -152h-13q27 53 110 152q-83 99 -110 152h13q44 -46 159 -152zM224 200q-115 -106 -159 -152h-14q26 50 111 152q-85 102 -111 152h14q44 -46 159 -152z" />
    <glyph glyph-name="onequarter" unicode="&#xbc;" horiz-adv-x="773" 
d="M88 287v10h51v285q0 20 -5 20q-21 0 -96 -42l-2 9q88 46 136 84h21v-356h47v-10h-152zM166 -12h-30l470 676h30zM600 0v10h46v122h-170l3 4l216 245l7 -4l-182 -207h126v126h54v-126h61v-38h-61v-122h48v-10h-148z" />
    <glyph glyph-name="onehalf" unicode="&#xbd;" horiz-adv-x="773" 
d="M88 287v10h51v285q0 20 -5 20q-21 0 -96 -42l-2 9q88 46 136 84h21v-356h47v-10h-152zM166 -12h-30l470 676h30zM482 0q7 17 26 39t32.5 34l53.5 46q46 41 67.5 73.5t21.5 75.5t-24.5 68t-65.5 25q-35 0 -62 -20.5t-27 -41.5q0 -15 23 -16q31 -2 31 -24q0 -11 -8.5 -19
t-21.5 -8q-17 0 -28.5 13t-11.5 34q0 38 33.5 65t87.5 27q60 0 96.5 -28.5t36.5 -75.5q0 -35 -24 -63t-77 -67l-23 -16.5l-25.5 -18t-22.5 -17t-24 -20.5t-21 -21h210l10 57h9l-17 -101h-255z" />
    <glyph glyph-name="threequarters" unicode="&#xbe;" horiz-adv-x="773" 
d="M68 497q9 -1 26 -1q63 0 89.5 18t26.5 64q0 34 -20 53t-55 19q-31 0 -54.5 -12.5t-23.5 -23.5q0 -5 12 -5h5q23 0 23 -21q0 -11 -7.5 -18.5t-17.5 -7.5q-34 0 -34 34q0 26 28 44t74 18q56 0 88 -22.5t32 -60.5q0 -31 -27 -53t-73 -27q57 -7 88 -34t31 -68
q0 -46 -43 -79.5t-107 -33.5q-53 0 -84.5 20.5t-31.5 51.5q0 17 10.5 28t26.5 11q12 0 21.5 -8t9.5 -19t-8.5 -19t-19.5 -8q-5 0 -10 1t-6 1q-7 0 -7 -9q0 -13 27.5 -27t64.5 -14q50 0 76 25.5t26 74.5q0 54 -28.5 78t-92.5 24q-22 0 -35 -1v7zM166 -12h-30l470 676h30z
M600 0v10h46v122h-170l3 4l216 245l7 -4l-182 -207h126v126h54v-126h61v-38h-61v-122h48v-10h-148z" />
    <glyph glyph-name="questiondown" unicode="&#xbf;" horiz-adv-x="449" 
d="M316 632q0 -19 -12.5 -32t-31.5 -13t-32 13t-13 32t13 31.5t32 12.5t31.5 -13t12.5 -31zM271 525l13 2q14 -53 14 -109q0 -28 -5.5 -50.5t-10 -36t-21 -32t-23.5 -25t-32 -27.5q-35 -30 -50 -45t-28.5 -41t-13.5 -56q0 -46 32 -76t83 -30q40 0 67.5 18.5t27.5 35.5
q0 11 -26 20q-37 13 -37 42q0 44 43 44q24 0 38.5 -16t14.5 -43q0 -51 -35.5 -83.5t-93.5 -32.5q-65 0 -105 46t-40 122q0 54 21.5 93.5t67.5 81.5q8 8 26.5 24l26 22.5t19.5 20.5t17 24.5t9 26.5t4 34q0 11 -3 46z" />
    <glyph glyph-name="Agrave" unicode="&#xc0;" horiz-adv-x="456" 
d="M-71 0v14h13q37 0 48.5 12t23.5 49l193 594h11l235 -655h66v-14h-254v14h86l-73 201h-204l-49 -159q-4 -12 -4 -18q0 -14 17.5 -18t63.5 -6v-14h-173zM79 229h194l-101 283zM314 730h-33l-161 100q-30 20 -30 40q0 15 10 25t26 10q18 0 47 -29z" />
    <glyph glyph-name="Aacute" unicode="&#xc1;" horiz-adv-x="456" 
d="M-71 0v14h13q37 0 48.5 12t23.5 49l193 594h11l235 -655h66v-14h-254v14h86l-73 201h-204l-49 -159q-4 -12 -4 -18q0 -14 17.5 -18t63.5 -6v-14h-173zM79 229h194l-101 283zM142 730l141 146q29 29 47 29q16 0 26 -10t10 -25q0 -20 -30 -40l-161 -100h-33z" />
    <glyph glyph-name="Acircumflex" unicode="&#xc2;" horiz-adv-x="456" 
d="M-71 0v14h13q37 0 48.5 12t23.5 49l193 594h11l235 -655h66v-14h-254v14h86l-73 201h-204l-49 -159q-4 -12 -4 -18q0 -14 17.5 -18t63.5 -6v-14h-173zM79 229h194l-101 283zM86 730l113 170h58l113 -170h-28l-114 102l-114 -102h-28z" />
    <glyph glyph-name="Atilde" unicode="&#xc3;" horiz-adv-x="456" 
d="M-71 0v14h13q37 0 48.5 12t23.5 49l193 594h11l235 -655h66v-14h-254v14h86l-73 201h-204l-49 -159q-4 -12 -4 -18q0 -14 17.5 -18t63.5 -6v-14h-173zM79 229h194l-101 283zM368 875q-19 -100 -95 -100q-14 0 -36 5l-53 14q-12 3 -24 3q-19 0 -29.5 -10t-17.5 -34h-25
q18 103 96 103q16 0 31 -4l54 -14q20 -5 27 -5q33 0 46 42h26z" />
    <glyph glyph-name="Adieresis" unicode="&#xc4;" horiz-adv-x="456" 
d="M-71 0v14h13q37 0 48.5 12t23.5 49l193 594h11l235 -655h66v-14h-254v14h86l-73 201h-204l-49 -159q-4 -12 -4 -18q0 -14 17.5 -18t63.5 -6v-14h-173zM79 229h194l-101 283zM87 828q0 20 14.5 34.5t33.5 14.5t34 -14.5t15 -34.5q0 -21 -14 -34.5t-35 -13.5
q-20 0 -34 13.5t-14 34.5zM273 828q0 20 14.5 34.5t33.5 14.5t34 -14.5t15 -34.5q0 -21 -14 -34.5t-35 -13.5q-20 0 -34 13.5t-14 34.5z" />
    <glyph glyph-name="Aring" unicode="&#xc5;" horiz-adv-x="456" 
d="M-71 0v14h13q37 0 48.5 12t23.5 49l193 594h11l235 -655h66v-14h-254v14h86l-73 201h-204l-49 -159q-4 -12 -4 -18q0 -14 17.5 -18t63.5 -6v-14h-173zM79 229h194l-101 283zM96 819q0 49 34 83t83 34q50 0 84 -34t34 -83t-34.5 -83.5t-83.5 -34.5t-83 34t-34 84zM132 819
q0 -35 23.5 -58.5t57.5 -23.5t58 24t24 58t-24 58t-58 24t-57.5 -23.5t-23.5 -58.5z" />
    <glyph glyph-name="AE" unicode="&#xc6;" horiz-adv-x="873" 
d="M100 0h-194v12h3q53 0 81 27t64 96l267 514h-87v13h533l12 -161h-14q-8 89 -49 118t-143 29h-126v-304h31q83 0 114 22.5t31 90.5v4h14v-244h-14v4q0 69 -29.5 88.5t-115.5 19.5h-31v-315h128q125 0 176 37.5t51 138.5v3h14v-193h-539v14h71v203h-235l-62 -123
q-18 -34 -18 -50q0 -29 60 -29h7v-15zM348 231v418h-10l-215 -418h225z" />
    <glyph glyph-name="Ccedilla" unicode="&#xc7;" horiz-adv-x="606" 
d="M534 237h13v-224h-13q-8 47 -32 47q-11 0 -58 -31q-21 -14 -33.5 -21t-37 -14.5t-52.5 -7.5q-116 0 -208 106q-83 96 -83 225q0 156 88 258q87 101 207 101q29 0 57 -8.5t38.5 -14t39.5 -22.5l13 -8t12.5 -7.5t10.5 -5t11 -2.5q25 0 27 40h13v-198h-13q-10 94 -68 153
t-134 59q-191 0 -191 -341q0 -156 37 -225q24 -45 63.5 -70.5t80.5 -25.5q49 0 96.5 28.5t81.5 80.5q28 41 34 128zM190 -167l10 20q71 -27 104 -27q22 0 35 13t13 35q0 21 -11 33.5t-30 12.5q-4 0 -14 -2v82h17v-61q7 1 21 1q44 0 68 -18t24 -49q0 -30 -29.5 -49.5
t-78.5 -19.5q-50 0 -129 29z" />
    <glyph glyph-name="Egrave" unicode="&#xc8;" horiz-adv-x="627" 
d="M87 14v634h-70v14h490l12 -161h-15q-8 89 -49 118t-143 29h-125v-304h31q82 0 113 22.5t31 90.5v4h14v-248h-14v8q0 69 -29 88.5t-115 19.5h-31v-315h128q125 0 176 37.5t51 138.5v3h14v-193h-539v14h70zM422 730h-33l-161 100q-30 20 -30 40q0 15 10 25t26 10
q18 0 47 -29z" />
    <glyph glyph-name="Eacute" unicode="&#xc9;" horiz-adv-x="627" 
d="M87 14v634h-70v14h490l12 -161h-15q-8 89 -49 118t-143 29h-125v-304h31q82 0 113 22.5t31 90.5v4h14v-248h-14v8q0 69 -29 88.5t-115 19.5h-31v-315h128q125 0 176 37.5t51 138.5v3h14v-193h-539v14h70zM250 730l141 146q29 29 47 29q16 0 26 -10t10 -25q0 -20 -30 -40
l-161 -100h-33z" />
    <glyph glyph-name="Ecircumflex" unicode="&#xca;" horiz-adv-x="627" 
d="M87 14v634h-70v14h490l12 -161h-15q-8 89 -49 118t-143 29h-125v-304h31q82 0 113 22.5t31 90.5v4h14v-248h-14v8q0 69 -29 88.5t-115 19.5h-31v-315h128q125 0 176 37.5t51 138.5v3h14v-193h-539v14h70zM194 730l113 170h58l113 -170h-28l-114 102l-114 -102h-28z" />
    <glyph glyph-name="Edieresis" unicode="&#xcb;" horiz-adv-x="627" 
d="M87 14v634h-70v14h490l12 -161h-15q-8 89 -49 118t-143 29h-125v-304h31q82 0 113 22.5t31 90.5v4h14v-248h-14v8q0 69 -29 88.5t-115 19.5h-31v-315h128q125 0 176 37.5t51 138.5v3h14v-193h-539v14h70zM195 828q0 20 14.5 34.5t33.5 14.5t34 -14.5t15 -34.5
q0 -21 -14 -34.5t-35 -13.5q-20 0 -34 13.5t-14 34.5zM381 828q0 20 14.5 34.5t33.5 14.5t34 -14.5t15 -34.5q0 -21 -14 -34.5t-35 -13.5q-20 0 -34 13.5t-14 34.5z" />
    <glyph glyph-name="Igrave" unicode="&#xcc;" horiz-adv-x="271" 
d="M12 0v14h75v634h-75v14h247v-14h-71v-634h71v-14h-247zM206 730h-33l-161 100q-30 20 -30 40q0 15 10 25t26 10q18 0 47 -29z" />
    <glyph glyph-name="Iacute" unicode="&#xcd;" horiz-adv-x="271" 
d="M12 0v14h75v634h-75v14h247v-14h-71v-634h71v-14h-247zM34 730l141 146q29 29 47 29q16 0 26 -10t10 -25q0 -20 -30 -40l-161 -100h-33z" />
    <glyph glyph-name="Icircumflex" unicode="&#xce;" horiz-adv-x="271" 
d="M12 0v14h75v634h-75v14h247v-14h-71v-634h71v-14h-247zM-22 730l113 170h58l113 -170h-28l-114 102l-114 -102h-28z" />
    <glyph glyph-name="Idieresis" unicode="&#xcf;" horiz-adv-x="271" 
d="M12 0v14h75v634h-75v14h247v-14h-71v-634h71v-14h-247zM-21 828q0 20 14.5 34.5t33.5 14.5t34 -14.5t15 -34.5q0 -21 -14 -34.5t-35 -13.5q-20 0 -34 13.5t-14 34.5zM165 828q0 20 14.5 34.5t33.5 14.5t34 -14.5t15 -34.5q0 -21 -14 -34.5t-35 -13.5q-20 0 -34 13.5
t-14 34.5z" />
    <glyph glyph-name="Eth" unicode="&#xd0;" horiz-adv-x="653" 
d="M12 0v14h73v318h-85v26h85v290h-73v14h250q159 0 246 -75q112 -98 112 -256t-112 -255q-88 -76 -246 -76h-250zM185 14h58q136 0 202.5 78.5t66.5 238.5q0 161 -66.5 239t-202.5 78h-58v-290h172v-26h-172v-318z" />
    <glyph glyph-name="Ntilde" unicode="&#xd1;" horiz-adv-x="660" 
d="M106 91q0 -47 15 -60.5t73 -16.5v-14h-183v14q49 4 61.5 18t12.5 60v556h-74v14h189l354 -485v394q0 47 -15 60.5t-73 16.5v14h182v-14q-49 -4 -61.5 -18t-12.5 -60v-575h-11l-457 624v-528zM470 875q-19 -100 -95 -100q-14 0 -36 5l-53 14q-12 3 -24 3q-19 0 -29.5 -10
t-17.5 -34h-25q18 103 96 103q16 0 31 -4l54 -14q20 -5 27 -5q33 0 46 42h26z" />
    <glyph glyph-name="Ograve" unicode="&#xd2;" horiz-adv-x="657" 
d="M32 331q0 142 82 238q92 107 215 107t215 -107q81 -94 81 -238q0 -143 -81 -238q-92 -107 -215 -107t-215 107q-82 96 -82 238zM141 331q0 -158 51 -244.5t137 -86.5t136.5 86t50.5 245t-50.5 245t-136.5 86t-137 -86.5t-51 -244.5zM396 730h-33l-161 100q-30 20 -30 40
q0 15 10 25t26 10q18 0 47 -29z" />
    <glyph glyph-name="Oacute" unicode="&#xd3;" horiz-adv-x="657" 
d="M32 331q0 142 82 238q92 107 215 107t215 -107q81 -94 81 -238q0 -143 -81 -238q-92 -107 -215 -107t-215 107q-82 96 -82 238zM141 331q0 -158 51 -244.5t137 -86.5t136.5 86t50.5 245t-50.5 245t-136.5 86t-137 -86.5t-51 -244.5zM224 730l141 146q29 29 47 29
q16 0 26 -10t10 -25q0 -20 -30 -40l-161 -100h-33z" />
    <glyph glyph-name="Ocircumflex" unicode="&#xd4;" horiz-adv-x="657" 
d="M32 331q0 142 82 238q92 107 215 107t215 -107q81 -94 81 -238q0 -143 -81 -238q-92 -107 -215 -107t-215 107q-82 96 -82 238zM141 331q0 -158 51 -244.5t137 -86.5t136.5 86t50.5 245t-50.5 245t-136.5 86t-137 -86.5t-51 -244.5zM168 730l113 170h58l113 -170h-28
l-114 102l-114 -102h-28z" />
    <glyph glyph-name="Otilde" unicode="&#xd5;" horiz-adv-x="657" 
d="M32 331q0 142 82 238q92 107 215 107t215 -107q81 -94 81 -238q0 -143 -81 -238q-92 -107 -215 -107t-215 107q-82 96 -82 238zM141 331q0 -158 51 -244.5t137 -86.5t136.5 86t50.5 245t-50.5 245t-136.5 86t-137 -86.5t-51 -244.5zM450 875q-19 -100 -95 -100
q-14 0 -36 5l-53 14q-12 3 -24 3q-19 0 -29.5 -10t-17.5 -34h-25q18 103 96 103q16 0 31 -4l54 -14q20 -5 27 -5q33 0 46 42h26z" />
    <glyph glyph-name="Odieresis" unicode="&#xd6;" horiz-adv-x="657" 
d="M32 331q0 142 82 238q92 107 215 107t215 -107q81 -94 81 -238q0 -143 -81 -238q-92 -107 -215 -107t-215 107q-82 96 -82 238zM141 331q0 -158 51 -244.5t137 -86.5t136.5 86t50.5 245t-50.5 245t-136.5 86t-137 -86.5t-51 -244.5zM169 828q0 20 14.5 34.5t33.5 14.5
t34 -14.5t15 -34.5q0 -21 -14 -34.5t-35 -13.5q-20 0 -34 13.5t-14 34.5zM355 828q0 20 14.5 34.5t33.5 14.5t34 -14.5t15 -34.5q0 -21 -14 -34.5t-35 -13.5q-20 0 -34 13.5t-14 34.5z" />
    <glyph glyph-name="multiply" unicode="&#xd7;" horiz-adv-x="833" 
d="M186 571l233 -233l232 233l40 -40l-232 -233l232 -232l-40 -40l-232 232l-233 -232l-39 40l232 232l-232 233z" />
    <glyph glyph-name="Oslash" unicode="&#xd8;" horiz-adv-x="657" 
d="M492 516l-322 -382q53 -134 159 -134q88 0 137.5 88.5t49.5 257.5q0 89 -24 170zM162 156l323 383q-57 123 -153 123q-90 0 -140.5 -86.5t-50.5 -247.5q0 -96 21 -172zM31 0l81 96q-80 93 -80 235q0 116 57 204q92 141 240 141q110 0 198 -89l80 94l16 -10l-83 -98
q85 -92 85 -244q0 -109 -52 -195q-43 -70 -107.5 -109t-136.5 -39q-110 0 -204 95l-81 -95z" />
    <glyph glyph-name="Ugrave" unicode="&#xd9;" horiz-adv-x="657" 
d="M82 648h-76v14h261v-14h-82v-437q0 -109 21 -140q41 -61 150 -61q114 0 167 71q20 26 25 56.5t5 81.5v345q0 58 -11.5 71t-69.5 13h-17v14h196v-14h-8q-50 0 -61 -14.5t-11 -70.5v-340q0 -39 -1.5 -60t-8 -47t-20.5 -45q-60 -85 -213 -85q-140 0 -203 66
q-28 29 -35.5 65.5t-7.5 103.5v427zM415 730h-33l-161 100q-30 20 -30 40q0 15 10 25t26 10q18 0 47 -29z" />
    <glyph glyph-name="Uacute" unicode="&#xda;" horiz-adv-x="657" 
d="M82 648h-76v14h261v-14h-82v-437q0 -109 21 -140q41 -61 150 -61q114 0 167 71q20 26 25 56.5t5 81.5v345q0 58 -11.5 71t-69.5 13h-17v14h196v-14h-8q-50 0 -61 -14.5t-11 -70.5v-340q0 -39 -1.5 -60t-8 -47t-20.5 -45q-60 -85 -213 -85q-140 0 -203 66
q-28 29 -35.5 65.5t-7.5 103.5v427zM243 730l141 146q29 29 47 29q16 0 26 -10t10 -25q0 -20 -30 -40l-161 -100h-33z" />
    <glyph glyph-name="Ucircumflex" unicode="&#xdb;" horiz-adv-x="657" 
d="M82 648h-76v14h261v-14h-82v-437q0 -109 21 -140q41 -61 150 -61q114 0 167 71q20 26 25 56.5t5 81.5v345q0 58 -11.5 71t-69.5 13h-17v14h196v-14h-8q-50 0 -61 -14.5t-11 -70.5v-340q0 -39 -1.5 -60t-8 -47t-20.5 -45q-60 -85 -213 -85q-140 0 -203 66
q-28 29 -35.5 65.5t-7.5 103.5v427zM187 730l113 170h58l113 -170h-28l-114 102l-114 -102h-28z" />
    <glyph glyph-name="Udieresis" unicode="&#xdc;" horiz-adv-x="657" 
d="M82 648h-76v14h261v-14h-82v-437q0 -109 21 -140q41 -61 150 -61q114 0 167 71q20 26 25 56.5t5 81.5v345q0 58 -11.5 71t-69.5 13h-17v14h196v-14h-8q-50 0 -61 -14.5t-11 -70.5v-340q0 -39 -1.5 -60t-8 -47t-20.5 -45q-60 -85 -213 -85q-140 0 -203 66
q-28 29 -35.5 65.5t-7.5 103.5v427zM188 828q0 20 14.5 34.5t33.5 14.5q20 0 34.5 -14.5t14.5 -34.5q0 -21 -14 -34.5t-35 -13.5q-20 0 -34 13.5t-14 34.5zM374 828q0 20 14.5 34.5t33.5 14.5q20 0 34.5 -14.5t14.5 -34.5q0 -21 -14 -34.5t-35 -13.5q-20 0 -34 13.5
t-14 34.5z" />
    <glyph glyph-name="Yacute" unicode="&#xdd;" horiz-adv-x="495" 
d="M114 0v14h86v236l-177 398h-78v14h255v-14h-71l160 -356l129 292q10 23 10 36q0 28 -57 28h-9v14h170v-14h-15q-32 0 -46.5 -11t-28.5 -43l-144 -325v-255h85v-14h-269zM162 730l141 146q29 29 47 29q16 0 26 -10t10 -25q0 -20 -30 -40l-161 -100h-33z" />
    <glyph glyph-name="Thorn" unicode="&#xde;" horiz-adv-x="549" 
d="M88 648h-76v14h252v-14h-77v-123h84q125 0 189 -46.5t64 -134.5q0 -86 -62 -139.5t-164 -53.5q-54 0 -111 18v-155h72v-14h-247v14h76v634zM187 512v-325q55 -19 94 -19q66 0 106.5 45t40.5 122q0 178 -212 178q-5 0 -14.5 -0.5t-14.5 -0.5z" />
    <glyph glyph-name="germandbls" unicode="&#xdf;" horiz-adv-x="505" 
d="M10 0v14h52v370h-52v14h52v17q0 131 52 201t147 70q61 0 100.5 -38t39.5 -94q0 -54 -45 -108l-26 -30l-24.5 -27.5t-15 -21t-6.5 -21.5q0 -7 3.5 -13t12 -11t16.5 -8.5l23.5 -10.5l26.5 -12q61 -29 85 -57t24 -80q0 -73 -44.5 -119.5t-115.5 -46.5q-54 0 -87 28.5
t-33 74.5q0 23 14 38t37 15q18 0 29 -11t11 -28t-22.5 -34t-22.5 -27q0 -16 21 -28.5t57 -12.5q50 0 84 31t34 78q0 61 -65 88l-29 12l-27 11.5t-22 10.5t-20 11t-14.5 10.5t-12 13t-6 14.5t-2.5 17q0 15 7.5 32t15.5 27.5t28.5 35.5t29.5 37q38 49 38 124q0 53 -27 84
t-71 31q-62 0 -89 -52.5t-27 -164.5v-440h49v-14h-183z" />
    <glyph glyph-name="agrave" unicode="&#xe0;" horiz-adv-x="440" 
d="M280 73v135q-11 1 -30 1q-136 0 -136 -110q0 -43 18.5 -66t51.5 -23q29 0 55 17t41 46zM450 43q-42 -52 -86 -52q-66 0 -80 63q-39 -66 -142 -66q-50 0 -82.5 29t-32.5 71q0 64 64 99.5t184 35.5h5v101q0 37 -18 54.5t-59 17.5q-36 0 -61 -17.5t-25 -31.5q0 -3 7 -8
t14 -14.5t7 -21.5q0 -22 -11.5 -34.5t-31.5 -12.5q-21 0 -33.5 13t-12.5 34q0 44 42 75.5t107 31.5q63 0 112 -35q27 -20 34 -39.5t7 -56.5v-201q0 -63 30 -63q22 0 51 38zM306 464h-33l-161 100q-30 20 -30 40q0 15 10 25t26 10q18 0 47 -29z" />
    <glyph glyph-name="aacute" unicode="&#xe1;" horiz-adv-x="440" 
d="M280 73v135q-11 1 -30 1q-136 0 -136 -110q0 -43 18.5 -66t51.5 -23q29 0 55 17t41 46zM450 43q-42 -52 -86 -52q-66 0 -80 63q-39 -66 -142 -66q-50 0 -82.5 29t-32.5 71q0 64 64 99.5t184 35.5h5v101q0 37 -18 54.5t-59 17.5q-36 0 -61 -17.5t-25 -31.5q0 -3 7 -8
t14 -14.5t7 -21.5q0 -22 -11.5 -34.5t-31.5 -12.5q-21 0 -33.5 13t-12.5 34q0 44 42 75.5t107 31.5q63 0 112 -35q27 -20 34 -39.5t7 -56.5v-201q0 -63 30 -63q22 0 51 38zM134 464l141 146q29 29 47 29q16 0 26 -10t10 -25q0 -20 -30 -40l-161 -100h-33z" />
    <glyph glyph-name="acircumflex" unicode="&#xe2;" horiz-adv-x="440" 
d="M280 73v135q-11 1 -30 1q-136 0 -136 -110q0 -43 18.5 -66t51.5 -23q29 0 55 17t41 46zM450 43q-42 -52 -86 -52q-66 0 -80 63q-39 -66 -142 -66q-50 0 -82.5 29t-32.5 71q0 64 64 99.5t184 35.5h5v101q0 37 -18 54.5t-59 17.5q-36 0 -61 -17.5t-25 -31.5q0 -3 7 -8
t14 -14.5t7 -21.5q0 -22 -11.5 -34.5t-31.5 -12.5q-21 0 -33.5 13t-12.5 34q0 44 42 75.5t107 31.5q63 0 112 -35q27 -20 34 -39.5t7 -56.5v-201q0 -63 30 -63q22 0 51 38zM78 464l113 170h58l113 -170h-28l-114 102l-114 -102h-28z" />
    <glyph glyph-name="atilde" unicode="&#xe3;" horiz-adv-x="440" 
d="M280 73v135q-11 1 -30 1q-136 0 -136 -110q0 -43 18.5 -66t51.5 -23q29 0 55 17t41 46zM450 43q-42 -52 -86 -52q-66 0 -80 63q-39 -66 -142 -66q-50 0 -82.5 29t-32.5 71q0 64 64 99.5t184 35.5h5v101q0 37 -18 54.5t-59 17.5q-36 0 -61 -17.5t-25 -31.5q0 -3 7 -8
t14 -14.5t7 -21.5q0 -22 -11.5 -34.5t-31.5 -12.5q-21 0 -33.5 13t-12.5 34q0 44 42 75.5t107 31.5q63 0 112 -35q27 -20 34 -39.5t7 -56.5v-201q0 -63 30 -63q22 0 51 38zM360 609q-19 -100 -95 -100q-14 0 -36 5l-53 14q-12 3 -24 3q-19 0 -29.5 -10t-17.5 -34h-25
q18 103 96 103q16 0 31 -4l54 -14q20 -5 27 -5q33 0 46 42h26z" />
    <glyph glyph-name="adieresis" unicode="&#xe4;" horiz-adv-x="440" 
d="M280 73v135q-11 1 -30 1q-136 0 -136 -110q0 -43 18.5 -66t51.5 -23q29 0 55 17t41 46zM450 43q-42 -52 -86 -52q-66 0 -80 63q-39 -66 -142 -66q-50 0 -82.5 29t-32.5 71q0 64 64 99.5t184 35.5h5v101q0 37 -18 54.5t-59 17.5q-36 0 -61 -17.5t-25 -31.5q0 -3 7 -8
t14 -14.5t7 -21.5q0 -22 -11.5 -34.5t-31.5 -12.5q-21 0 -33.5 13t-12.5 34q0 44 42 75.5t107 31.5q63 0 112 -35q27 -20 34 -39.5t7 -56.5v-201q0 -63 30 -63q22 0 51 38zM79 562q0 20 14.5 34.5t33.5 14.5t34 -14.5t15 -34.5q0 -21 -14 -34.5t-35 -13.5q-20 0 -34 13.5
t-14 34.5zM265 562q0 20 14.5 34.5t33.5 14.5t34 -14.5t15 -34.5q0 -21 -14 -34.5t-35 -13.5q-20 0 -34 13.5t-14 34.5z" />
    <glyph glyph-name="aring" unicode="&#xe5;" horiz-adv-x="440" 
d="M280 73v135q-11 1 -30 1q-136 0 -136 -110q0 -43 18.5 -66t51.5 -23q29 0 55 17t41 46zM450 43q-42 -52 -86 -52q-66 0 -80 63q-39 -66 -142 -66q-50 0 -82.5 29t-32.5 71q0 64 64 99.5t184 35.5h5v101q0 37 -18 54.5t-59 17.5q-36 0 -61 -17.5t-25 -31.5q0 -3 7 -8
t14 -14.5t7 -21.5q0 -22 -11.5 -34.5t-31.5 -12.5q-21 0 -33.5 13t-12.5 34q0 44 42 75.5t107 31.5q63 0 112 -35q27 -20 34 -39.5t7 -56.5v-201q0 -63 30 -63q22 0 51 38zM87 560q0 49 34 83t84 34t84 -34t34 -83q0 -50 -34.5 -84t-83.5 -34t-83.5 34t-34.5 84zM124 560
q0 -35 23 -58.5t58 -23.5t58.5 24t23.5 58t-24 58t-58 24t-57.5 -24t-23.5 -58z" />
    <glyph glyph-name="ae" unicode="&#xe6;" horiz-adv-x="650" 
d="M284 51q-45 -64 -143 -64q-49 0 -81.5 28.5t-32.5 70.5q0 65 63.5 101t183.5 36h9v101q0 39 -19 55.5t-65 16.5q-33 0 -57.5 -17t-24.5 -31q0 -2 14 -15t14 -30q0 -22 -11.5 -34.5t-31.5 -12.5q-21 0 -33.5 12.5t-12.5 34.5q0 44 41 75.5t108 31.5q91 0 140 -48
q48 48 108 48q70 0 118 -47t54 -123h-258v-104q0 -67 26 -99t82 -32q51 0 88.5 34t53.5 95h16q-40 -146 -181 -146q-106 0 -168 63zM367 254h160v46q0 96 -80 96q-37 0 -58.5 -28.5t-21.5 -81.5v-32zM283 73v135q-11 1 -31 1q-71 0 -104 -27t-33 -85q0 -42 18.5 -64.5
t51.5 -22.5q30 0 56 16.5t42 46.5z" />
    <glyph glyph-name="ccedilla" unicode="&#xe7;" horiz-adv-x="391" 
d="M373 133q-7 -68 -46.5 -106.5t-100.5 -38.5q-87 0 -141.5 55.5t-54.5 143.5q0 95 60.5 159.5t146.5 64.5q55 0 92.5 -27t37.5 -64q0 -17 -14.5 -31t-33.5 -14t-31.5 13.5t-12.5 32.5q0 13 6.5 24.5t13.5 18.5t7 8q0 4 -7.5 10.5t-23 12t-33.5 5.5q-57 0 -88 -36
q-20 -23 -25.5 -52t-5.5 -79v-64q0 -91 27 -127q28 -36 83 -36q115 0 129 127h15zM91 -167l10 20q71 -27 104 -27q23 0 35.5 13t12.5 35q0 21 -11 33.5t-30 12.5q-4 0 -14 -2v82h17v-61q7 1 21 1q44 0 68 -18t24 -49q0 -30 -29.5 -49.5t-78.5 -19.5q-50 0 -129 29z" />
    <glyph glyph-name="egrave" unicode="&#xe8;" horiz-adv-x="391" 
d="M114 239v-116q0 -62 23.5 -90.5t76.5 -28.5q52 0 90 34t54 95h15q-18 -69 -61 -107.5t-102 -38.5q-76 0 -131.5 60t-55.5 149q0 92 50 153t121 61q68 0 117.5 -48t54.5 -123h-252zM114 253h154v47q0 96 -78 96q-76 0 -76 -110v-33zM308 464h-33l-161 100q-30 20 -30 40
q0 15 10 25t26 10q18 0 47 -29z" />
    <glyph glyph-name="eacute" unicode="&#xe9;" horiz-adv-x="391" 
d="M114 239v-116q0 -62 23.5 -90.5t76.5 -28.5q52 0 90 34t54 95h15q-18 -69 -61 -107.5t-102 -38.5q-76 0 -131.5 60t-55.5 149q0 92 50 153t121 61q68 0 117.5 -48t54.5 -123h-252zM114 253h154v47q0 96 -78 96q-76 0 -76 -110v-33zM136 464l141 146q29 29 47 29
q16 0 26 -10t10 -25q0 -20 -30 -40l-161 -100h-33z" />
    <glyph glyph-name="ecircumflex" unicode="&#xea;" horiz-adv-x="391" 
d="M114 239v-116q0 -62 23.5 -90.5t76.5 -28.5q52 0 90 34t54 95h15q-18 -69 -61 -107.5t-102 -38.5q-76 0 -131.5 60t-55.5 149q0 92 50 153t121 61q68 0 117.5 -48t54.5 -123h-252zM114 253h154v47q0 96 -78 96q-76 0 -76 -110v-33zM80 464l113 170h58l113 -170h-28
l-114 102l-114 -102h-28z" />
    <glyph glyph-name="edieresis" unicode="&#xeb;" horiz-adv-x="391" 
d="M114 239v-116q0 -62 23.5 -90.5t76.5 -28.5q52 0 90 34t54 95h15q-18 -69 -61 -107.5t-102 -38.5q-76 0 -131.5 60t-55.5 149q0 92 50 153t121 61q68 0 117.5 -48t54.5 -123h-252zM114 253h154v47q0 96 -78 96q-76 0 -76 -110v-33zM81 562q0 20 14.5 34.5t33.5 14.5
t34 -14.5t15 -34.5q0 -21 -14 -34.5t-35 -13.5q-20 0 -34 13.5t-14 34.5zM267 562q0 20 14.5 34.5t33.5 14.5t34 -14.5t15 -34.5q0 -21 -14 -34.5t-35 -13.5q-20 0 -34 13.5t-14 34.5z" />
    <glyph glyph-name="igrave" unicode="&#xec;" horiz-adv-x="222" 
d="M69 384h-57v14h48q69 0 93 12v-396h55v-14h-196v14h57v370zM197 464h-33l-161 100q-30 20 -30 40q0 15 10 25t26 10q18 0 47 -29z" />
    <glyph glyph-name="iacute" unicode="&#xed;" horiz-adv-x="222" 
d="M69 384h-57v14h48q69 0 93 12v-396h55v-14h-196v14h57v370zM25 464l141 146q29 29 47 29q16 0 26 -10t10 -25q0 -20 -30 -40l-161 -100h-33z" />
    <glyph glyph-name="icircumflex" unicode="&#xee;" horiz-adv-x="222" 
d="M69 384h-57v14h48q69 0 93 12v-396h55v-14h-196v14h57v370zM-31 464l113 170h58l113 -170h-28l-114 102l-114 -102h-28z" />
    <glyph glyph-name="idieresis" unicode="&#xef;" horiz-adv-x="222" 
d="M69 384h-57v14h48q69 0 93 12v-396h55v-14h-196v14h57v370zM-30 562q0 20 14.5 34.5t33.5 14.5q20 0 34.5 -14.5t14.5 -34.5q0 -21 -14 -34.5t-35 -13.5q-20 0 -34 13.5t-14 34.5zM156 562q0 20 14.5 34.5t33.5 14.5q20 0 34.5 -14.5t14.5 -34.5q0 -21 -14 -34.5
t-35 -13.5q-20 0 -34 13.5t-14 34.5z" />
    <glyph glyph-name="eth" unicode="&#xf0;" horiz-adv-x="435" 
d="M113 260v-121q0 -136 105 -136q54 0 79 33.5t25 102.5v121q0 69 -25 102.5t-79 33.5q-105 0 -105 -136zM292 566q120 -145 120 -335q0 -113 -53.5 -177.5t-138.5 -64.5q-79 0 -136.5 62.5t-57.5 147.5q0 84 61 150q58 61 133 61q52 0 92 -31q-15 89 -67 166l-125 -59
l-11 23l125 57q-36 52 -93 106l13 14q68 -47 121 -102l124 57l9 -22z" />
    <glyph glyph-name="ntilde" unicode="&#xf1;" horiz-adv-x="486" 
d="M12 0v14h57v370h-57v14h48q63 0 93 12v-89q55 89 141 89q59 0 93 -33.5t34 -91.5v-271h58v-14h-197v14h56v300q0 42 -11.5 59.5t-43.5 17.5q-77 0 -130 -98v-279h55v-14h-196zM383 609q-19 -100 -95 -100q-14 0 -36 5l-53 14q-12 3 -24 3q-19 0 -29.5 -10t-17.5 -34h-25
q18 103 96 103q16 0 31 -4l54 -14q20 -5 27 -5q33 0 46 42h26z" />
    <glyph glyph-name="ograve" unicode="&#xf2;" horiz-adv-x="435" 
d="M113 139q0 -136 105 -136q54 0 79 33.5t25 102.5v121q0 69 -25 102.5t-79 33.5q-105 0 -105 -136v-121zM23 199q0 86 61 150q58 61 134 61q78 0 136 -63t58 -148q0 -84 -61 -150q-55 -60 -133 -60q-77 0 -134 60q-61 64 -61 150zM314 464h-33l-161 100q-30 20 -30 40
q0 15 10 25t26 10q18 0 47 -29z" />
    <glyph glyph-name="oacute" unicode="&#xf3;" horiz-adv-x="435" 
d="M113 139q0 -136 105 -136q54 0 79 33.5t25 102.5v121q0 69 -25 102.5t-79 33.5q-105 0 -105 -136v-121zM23 199q0 86 61 150q58 61 134 61q78 0 136 -63t58 -148q0 -84 -61 -150q-55 -60 -133 -60q-77 0 -134 60q-61 64 -61 150zM142 464l141 146q29 29 47 29
q16 0 26 -10t10 -25q0 -20 -30 -40l-161 -100h-33z" />
    <glyph glyph-name="ocircumflex" unicode="&#xf4;" horiz-adv-x="435" 
d="M113 139q0 -136 105 -136q54 0 79 33.5t25 102.5v121q0 69 -25 102.5t-79 33.5q-105 0 -105 -136v-121zM23 199q0 86 61 150q58 61 134 61q78 0 136 -63t58 -148q0 -84 -61 -150q-55 -60 -133 -60q-77 0 -134 60q-61 64 -61 150zM86 464l113 170h58l113 -170h-28
l-114 102l-114 -102h-28z" />
    <glyph glyph-name="otilde" unicode="&#xf5;" horiz-adv-x="435" 
d="M113 139q0 -136 105 -136q54 0 79 33.5t25 102.5v121q0 69 -25 102.5t-79 33.5q-105 0 -105 -136v-121zM23 199q0 86 61 150q58 61 134 61q78 0 136 -63t58 -148q0 -84 -61 -150q-55 -60 -133 -60q-77 0 -134 60q-61 64 -61 150zM368 609q-19 -100 -95 -100q-14 0 -36 5
l-53 14q-12 3 -24 3q-19 0 -29.5 -10t-17.5 -34h-25q18 103 96 103q16 0 31 -4l54 -14q20 -5 27 -5q33 0 46 42h26z" />
    <glyph glyph-name="odieresis" unicode="&#xf6;" horiz-adv-x="435" 
d="M113 139q0 -136 105 -136q54 0 79 33.5t25 102.5v121q0 69 -25 102.5t-79 33.5q-105 0 -105 -136v-121zM23 199q0 86 61 150q58 61 134 61q78 0 136 -63t58 -148q0 -84 -61 -150q-55 -60 -133 -60q-77 0 -134 60q-61 64 -61 150zM87 562q0 20 14.5 34.5t33.5 14.5
t34 -14.5t15 -34.5q0 -21 -14 -34.5t-35 -13.5q-20 0 -34 13.5t-14 34.5zM273 562q0 20 14.5 34.5t33.5 14.5t34 -14.5t15 -34.5q0 -21 -14 -34.5t-35 -13.5q-20 0 -34 13.5t-14 34.5z" />
    <glyph glyph-name="divide" unicode="&#xf7;" horiz-adv-x="833" 
d="M417 530q23 0 39.5 -16.5t16.5 -39.5t-16 -39.5t-40 -16.5t-40 16.5t-16 39.5t16.5 39.5t39.5 16.5zM124 327h585v-57h-585v57zM417 178q23 0 39.5 -16.5t16.5 -39.5t-16 -39.5t-40 -16.5q-23 0 -39.5 16.5t-16.5 39.5q0 24 16.5 40t39.5 16z" />
    <glyph glyph-name="oslash" unicode="&#xf8;" horiz-adv-x="440" 
d="M349 353l53 58l11 -12l-52 -56q51 -66 51 -142q0 -88 -57.5 -150.5t-136.5 -62.5q-85 0 -129 57l-59 -66l-11 13l59 64q-54 69 -54 143q0 85 58 148t138 63q76 0 129 -57zM116 260v-162l201 220q-7 37 -33 57.5t-66 20.5q-56 0 -79 -32.5t-23 -103.5zM322 139v160
l-201 -220q4 -34 30.5 -55t66.5 -21q54 0 79 33t25 103z" />
    <glyph glyph-name="ugrave" unicode="&#xf9;" horiz-adv-x="484" 
d="M335 384h-58v14h48q63 0 93 12v-396h56v-14h-140v89q-59 -89 -143 -89q-59 0 -93.5 33.5t-34.5 91.5v259h-57v14h48q63 0 93 12v-315q0 -40 13.5 -58t45.5 -18q69 0 129 98v267zM328 464h-33l-161 100q-30 20 -30 40q0 15 10 25t26 10q18 0 47 -29z" />
    <glyph glyph-name="uacute" unicode="&#xfa;" horiz-adv-x="484" 
d="M335 384h-58v14h48q63 0 93 12v-396h56v-14h-140v89q-59 -89 -143 -89q-59 0 -93.5 33.5t-34.5 91.5v259h-57v14h48q63 0 93 12v-315q0 -40 13.5 -58t45.5 -18q69 0 129 98v267zM156 464l141 146q29 29 47 29q16 0 26 -10t10 -25q0 -20 -30 -40l-161 -100h-33z" />
    <glyph glyph-name="ucircumflex" unicode="&#xfb;" horiz-adv-x="484" 
d="M335 384h-58v14h48q63 0 93 12v-396h56v-14h-140v89q-59 -89 -143 -89q-59 0 -93.5 33.5t-34.5 91.5v259h-57v14h48q63 0 93 12v-315q0 -40 13.5 -58t45.5 -18q69 0 129 98v267zM100 464l113 170h58l113 -170h-28l-114 102l-114 -102h-28z" />
    <glyph glyph-name="udieresis" unicode="&#xfc;" horiz-adv-x="484" 
d="M335 384h-58v14h48q63 0 93 12v-396h56v-14h-140v89q-59 -89 -143 -89q-59 0 -93.5 33.5t-34.5 91.5v259h-57v14h48q63 0 93 12v-315q0 -40 13.5 -58t45.5 -18q69 0 129 98v267zM101 562q0 20 14.5 34.5t33.5 14.5t34 -14.5t15 -34.5q0 -21 -14 -34.5t-35 -13.5
q-20 0 -34 13.5t-14 34.5zM287 562q0 20 14.5 34.5t33.5 14.5t34 -14.5t15 -34.5q0 -21 -14 -34.5t-35 -13.5q-20 0 -34 13.5t-14 34.5z" />
    <glyph glyph-name="yacute" unicode="&#xfd;" horiz-adv-x="440" 
d="M264 68q-20 -53 -43.5 -138t-24.5 -90q-15 -48 -35 -68.5t-54 -20.5q-21 0 -35 14.5t-14 35.5q0 19 12.5 32t30.5 13t30 -13t12 -32q0 -1 -0.5 -5t-0.5 -7q0 -2 3 -2q18 0 33.5 45t38.5 153l-172 399h-42v14h186v-14h-57l123 -294l88 238q8 21 8 33q0 15 -16 18.5
t-66 4.5v14h157v-14h-5q-22 0 -37 -18.5t-32 -61.5zM134 464l141 146q29 29 47 29q16 0 26 -10t10 -25q0 -20 -30 -40l-161 -100h-33z" />
    <glyph glyph-name="thorn" unicode="&#xfe;" horiz-adv-x="493" 
d="M205 -227v-14h-199v14h58v875h-58v14h48q52 0 93 24v-368q20 45 55 68.5t78 23.5q73 0 127.5 -61t54.5 -149q0 -95 -53.5 -153.5t-136.5 -58.5q-77 0 -125 78v-293h58zM147 282v-180q41 -99 130 -99q51 0 72.5 33.5t21.5 106.5v115q0 134 -97 134q-41 0 -74.5 -28.5
t-52.5 -81.5z" />
    <glyph glyph-name="ydieresis" unicode="&#xff;" horiz-adv-x="440" 
d="M264 68q-20 -53 -43.5 -138t-24.5 -90q-15 -48 -35 -68.5t-54 -20.5q-21 0 -35 14.5t-14 35.5q0 19 12.5 32t30.5 13t30 -13t12 -32q0 -1 -0.5 -5t-0.5 -7q0 -2 3 -2q18 0 33.5 45t38.5 153l-172 399h-42v14h186v-14h-57l123 -294l88 238q8 21 8 33q0 15 -16 18.5
t-66 4.5v14h157v-14h-5q-22 0 -37 -18.5t-32 -61.5zM79 562q0 20 14.5 34.5t33.5 14.5t34 -14.5t15 -34.5q0 -21 -14 -34.5t-35 -13.5q-20 0 -34 13.5t-14 34.5zM265 562q0 20 14.5 34.5t33.5 14.5t34 -14.5t15 -34.5q0 -21 -14 -34.5t-35 -13.5q-20 0 -34 13.5t-14 34.5z
" />
    <glyph glyph-name="dotlessi" unicode="&#x131;" horiz-adv-x="222" 
d="M69 384h-57v14h48q69 0 93 12v-396h55v-14h-196v14h57v370z" />
    <glyph glyph-name="Lslash" unicode="&#x141;" horiz-adv-x="576" 
d="M12 0v14h74v268l-86 -62v33l86 60v335h-74v14h247v-14h-71v-272l198 139v-33l-198 -140v-328h112q144 0 197 36t53 148v18h14v-216h-552z" />
    <glyph glyph-name="lslash" unicode="&#x142;" horiz-adv-x="222" 
d="M12 0v14h58v289l-70 -48v29l70 51v313h-58v14h48q52 0 93 24v-298l69 49v-33l-69 -49v-341h55v-14h-196z" />
    <glyph glyph-name="OE" unicode="&#x152;" horiz-adv-x="931" 
d="M475 0q-30 0 -78.5 -3.5t-65.5 -3.5q-122 0 -209 81q-109 103 -109 254q0 149 90.5 245t228.5 96q20 0 69 -3.5t77 -3.5h364l12 -161h-14q-8 89 -49 118t-143 29h-126v-304h31q83 0 114 22.5t31 90.5v4h14v-244h-14v4q0 69 -29.5 88.5t-115.5 19.5h-31v-315h128
q125 0 176 37.5t51 138.5v3h14v-193h-416zM422 76v516q0 37 -19.5 50t-70.5 13q-210 0 -210 -314q0 -173 49 -253.5t161 -80.5q51 0 70.5 13t19.5 50v6z" />
    <glyph glyph-name="oe" unicode="&#x153;" horiz-adv-x="694" 
d="M367 67q-67 -79 -149 -79q-77 0 -134 60q-61 66 -61 151q0 86 60 148.5t145 62.5q76 0 144 -68q56 68 128 68q66 0 115 -48t54 -123h-252v-116q0 -62 23.5 -90.5t77.5 -28.5q51 0 89 34t54 95h15q-18 -69 -61.5 -107.5t-102.5 -38.5q-90 0 -145 80zM113 138
q0 -135 105 -135q54 0 79 33t25 102v121q0 69 -25 102t-79 33q-105 0 -105 -135v-121zM417 254h153v46q0 96 -77 96q-36 0 -56 -28.5t-20 -81.5v-32z" />
    <glyph glyph-name="Scaron" unicode="&#x160;" horiz-adv-x="495" 
d="M46 237h14q7 -111 63 -173.5t142 -62.5q69 0 115 43.5t46 107.5q0 55 -42 91q-16 15 -45.5 25.5t-48 14.5t-71.5 14q-90 18 -131 59t-41 124q0 90 49.5 143t132.5 53q39 0 74.5 -14t58 -28.5t28.5 -14.5q25 0 25 33v5h14v-195h-14q-12 96 -61 148t-125 52
q-66 0 -102.5 -34.5t-36.5 -98.5q0 -71 53 -104q13 -8 35.5 -12.5t60 -10.5t66.5 -13q88 -21 127 -63.5t39 -122.5q0 -98 -55.5 -157t-147.5 -59q-54 0 -115.5 26t-68.5 26q-22 0 -24 -39h-14v237zM106 900h28l114 -103l114 103h28l-113 -170h-58z" />
    <glyph glyph-name="scaron" unicode="&#x161;" horiz-adv-x="329" 
d="M35 -3v140h10q18 -69 48 -100.5t78 -31.5q42 0 66 24.5t24 67.5q0 36 -25 56t-72 20q-61 0 -95 30.5t-34 83.5q0 52 31.5 87t79.5 35q25 0 47 -6.5t34 -13t14 -6.5q12 0 12 17q0 6 -1 10h16v-117h-11q-22 103 -109 103q-36 0 -59 -21t-23 -52q0 -26 18 -46q9 -9 22.5 -14
t25 -6.5t32.5 -3t34 -3.5q51 -7 78.5 -39t27.5 -82q0 -64 -35 -103t-91 -39q-31 0 -56 9.5t-39 19t-17 9.5q-17 0 -17 -28h-14zM23 634h28l114 -103l114 103h28l-113 -170h-58z" />
    <glyph glyph-name="Ydieresis" unicode="&#x178;" horiz-adv-x="495" 
d="M114 0v14h86v236l-177 398h-78v14h255v-14h-71l160 -356l129 292q10 23 10 36q0 28 -57 28h-9v14h170v-14h-15q-32 0 -46.5 -11t-28.5 -43l-144 -325v-255h85v-14h-269zM107 828q0 20 14.5 34.5t33.5 14.5t34 -14.5t15 -34.5q0 -21 -14 -34.5t-35 -13.5q-20 0 -34 13.5
t-14 34.5zM293 828q0 20 14.5 34.5t33.5 14.5t34 -14.5t15 -34.5q0 -21 -14 -34.5t-35 -13.5q-20 0 -34 13.5t-14 34.5z" />
    <glyph glyph-name="Zcaron" unicode="&#x17d;" horiz-adv-x="597" 
d="M21 0l395 648h-110q-134 0 -185.5 -26.5t-51.5 -112.5q0 -17 1 -26h-14v179h486l-401 -648h128q145 0 202.5 31.5t57.5 126.5q0 4 -0.5 11t-0.5 10h14v-193h-521zM157 900h28l114 -103l114 103h28l-113 -170h-58z" />
    <glyph glyph-name="zcaron" unicode="&#x17e;" horiz-adv-x="382" 
d="M12 0l246 384h-97q-59 0 -82.5 -25.5t-23.5 -90.5v-19h-15v149h328l-253 -384h99q117 0 117 124v10h13v-148h-332zM49 634h28l114 -103l114 103h28l-113 -170h-58z" />
    <glyph glyph-name="florin" unicode="&#x192;" horiz-adv-x="481" 
d="M182 317h-115v18h117q20 157 75.5 243t126.5 86q35 0 55.5 -19.5t20.5 -50.5q0 -21 -13.5 -35.5t-33.5 -14.5q-18 0 -30 11t-12 28q0 15 12 31t12 18q0 16 -20 16q-75 0 -96 -201l-12 -112h121v-18h-121q-27 -281 -75.5 -409.5t-137.5 -128.5q-31 0 -50 15.5t-19 41.5
q0 20 12.5 33t32.5 13q16 0 26.5 -11.5t10.5 -28.5q0 -6 -6 -17t-6 -16q0 -11 18 -11q39 0 56.5 54.5t27.5 176.5z" />
    <glyph glyph-name="circumflex" unicode="&#x2c6;" 
d="M108 464l113 170h58l113 -170h-28l-114 102l-114 -102h-28z" />
    <glyph glyph-name="caron" unicode="&#x2c7;" 
d="M108 634h28l114 -103l114 103h28l-113 -170h-58z" />
    <glyph glyph-name="breve" unicode="&#x2d8;" 
d="M107 615h25q15 -69 118 -69q102 0 117 69h25q-20 -132 -142 -132t-143 132z" />
    <glyph glyph-name="dotaccent" unicode="&#x2d9;" 
d="M201 540q0 20 14.5 34.5t34.5 14.5t34.5 -14.5t14.5 -34.5t-14.5 -34.5t-34.5 -14.5t-34.5 14.5t-14.5 34.5z" />
    <glyph glyph-name="ring" unicode="&#x2da;" 
d="M133 572q0 50 34 84t83 34q50 0 84 -34t34 -84q0 -49 -34 -83t-84 -34t-83.5 33.5t-33.5 83.5zM177 572q0 -31 21 -52t52 -21t52 21t21 52q0 30 -21.5 52t-51.5 22t-51.5 -21.5t-21.5 -52.5z" />
    <glyph glyph-name="ogonek" unicode="&#x2db;" 
d="M305 0q-89 -69 -89 -130q0 -27 14 -42.5t36 -15.5q38 0 58 36l14 -9q-36 -73 -103 -73q-34 0 -56 20t-22 50q0 84 124 164h24z" />
    <glyph glyph-name="tilde" unicode="&#x2dc;" 
d="M390 609q-19 -100 -95 -100q-14 0 -36 5l-53 14q-12 3 -24 3q-19 0 -29.5 -10t-17.5 -34h-25q18 103 96 103q16 0 31 -4l54 -14q20 -5 27 -5q33 0 46 42h26z" />
    <glyph glyph-name="hungarumlaut" unicode="&#x2dd;" 
d="M156 464l70 136q22 40 45 40q13 0 23 -10t10 -23q0 -15 -20 -37l-100 -106h-28zM290 464l70 136q22 40 45 40q13 0 23 -10t10 -23q0 -15 -20 -37l-99 -106h-29z" />
    <glyph glyph-name="endash" unicode="&#x2013;" 
d="M0 172v56h500v-56h-500z" />
    <glyph glyph-name="emdash" unicode="&#x2014;" horiz-adv-x="1000" 
d="M0 228h1000v-56h-1000v56z" />
    <glyph glyph-name="quoteleft" unicode="&#x2018;" horiz-adv-x="241" 
d="M142 676l10 -11q-83 -82 -83 -159q0 -25 20 -25q6 0 25 7t32 7q25 0 39 -13.5t14 -36.5t-17 -37.5t-44 -14.5q-37 0 -61 29t-24 76q0 98 89 178z" />
    <glyph glyph-name="quoteright" unicode="&#x2019;" horiz-adv-x="241" 
d="M110 394l-10 11q84 83 84 158q0 26 -21 26q-6 0 -25 -7t-32 -7q-25 0 -39 13t-14 36t17 37.5t44 14.5q37 0 61 -28.5t24 -75.5q0 -97 -89 -178z" />
    <glyph glyph-name="quotesinglbase" unicode="&#x201a;" horiz-adv-x="241" 
d="M110 -192l-10 11q84 83 84 158q0 26 -21 26q-6 0 -25 -7t-32 -7q-25 0 -39 13t-14 36t17 37.5t44 14.5q37 0 61 -28.5t24 -75.5q0 -97 -89 -178z" />
    <glyph glyph-name="quotedblleft" unicode="&#x201c;" horiz-adv-x="426" 
d="M142 676l10 -11q-83 -82 -83 -159q0 -25 20 -25q6 0 25 7t32 7q25 0 39 -13.5t14 -36.5t-17 -37.5t-44 -14.5q-37 0 -61 29t-24 76q0 98 89 178zM329 676l10 -11q-83 -82 -83 -159q0 -25 20 -25q6 0 25 7t32 7q25 0 39 -13.5t14 -36.5t-17 -37.5t-44 -14.5
q-37 0 -60.5 29t-23.5 76q0 97 88 178z" />
    <glyph glyph-name="quotedblright" unicode="&#x201d;" horiz-adv-x="426" 
d="M110 394l-10 11q84 83 84 158q0 26 -21 26q-6 0 -25 -7t-32 -7q-25 0 -39 13t-14 36t17 37.5t44 14.5q37 0 61 -28.5t24 -75.5q0 -97 -89 -178zM291 394l-10 11q83 82 83 158q0 26 -20 26q-6 0 -25 -7t-32 -7q-25 0 -39 13t-14 36t16.5 37.5t43.5 14.5q37 0 61 -28.5
t24 -75.5q0 -97 -88 -178z" />
    <glyph glyph-name="quotedblbase" unicode="&#x201e;" horiz-adv-x="426" 
d="M110 -192l-10 11q84 83 84 158q0 26 -21 26q-6 0 -25 -7t-32 -7q-25 0 -39 13t-14 36t17 37.5t44 14.5q37 0 61 -28.5t24 -75.5q0 -97 -89 -178zM293 -192l-11 11q84 83 84 158q0 26 -20 26q-6 0 -25 -7t-32 -7q-25 0 -39 13t-14 36t16.5 37.5t43.5 14.5q37 0 61 -28.5
t24 -75.5q0 -97 -88 -178z" />
    <glyph glyph-name="dagger" unicode="&#x2020;" 
d="M240 371q-54 0 -94.5 -13.5t-59.5 -26.5t-20 -13q-10 0 -10 9v3l7 24q-47 9 -51 13q-3 3 -3 7q0 2 1 4t3.5 3.5l5 3t8 3t10 2.5t12.5 3t14 4l-7 25v2q0 11 11 11q4 0 11 -6.5t19 -15.5t25 -15q32 -15 101 -15h17q-1 41 -6 78t-12.5 60.5t-14.5 41t-12 27t-5 10.5q0 8 6 8
q7 0 25 -8l14 59q2 7 3 9.5t3.5 5t7.5 2.5q10 0 13 -17l13 -59q18 8 25 8q6 0 6 -8q0 -1 -5 -10.5t-12 -27t-14.5 -41t-12.5 -60.5t-6 -78q88 2 118 15q13 6 25 15.5t19 15.5t11 6q9 0 9 -6q0 -1 -0.5 -3t-0.5 -4l-3 -25q6 -2 14 -4t12.5 -3t9.5 -2.5t7.5 -3l5 -3t3.5 -3.5
t1 -4q0 -7 -7.5 -10t-31.5 -7l-15 -3l5 -21q1 -3 1 -7q0 -8 -8 -8q-1 0 -20 13t-60 26.5t-95 13.5q1 -93 7.5 -177t15 -140t17 -97t14.5 -63.5t6 -24.5q0 -6 -9 -6t-28 13l-13 -72q-5 -23 -17 -23q-14 0 -19 23l-13 72q-19 -13 -28 -13t-9 6q0 2 6 24.5t14.5 63.5t17 97
t15 140t7.5 177z" />
    <glyph glyph-name="daggerdbl" unicode="&#x2021;" 
d="M206 227q36 51 38 182q-82 -7 -114 -23q-11 -5 -26 -18t-21 -13q-9 0 -9 8q0 4 1 7l6 24q-51 3 -51 21q0 11 51 21l-5 23q-1 2 -1 6q0 7 10 7q5 0 10.5 -4t14 -11t16.5 -11q43 -25 110 -25h8q-4 48 -16.5 89t-23 63t-10.5 25q0 5 9 5q6 0 23 -5l11 56q5 22 13 22t13 -22
l11 -56q17 5 23 5q9 0 9 -5q0 -4 -11 -25.5t-23 -62.5t-15 -89q77 0 119 26q7 4 15.5 11t13.5 10.5t10 3.5q10 0 10 -7q0 -4 -1 -6l-5 -23q51 -10 51 -21q0 -18 -51 -21l6 -24q1 -3 1 -7q0 -8 -9 -8q-7 0 -23.5 14t-28.5 20q-36 17 -108 20q0 -132 37 -182q-36 -50 -38 -182
q82 7 114 23q11 5 26 18t21 13q9 0 9 -8q0 -4 -1 -7l-6 -24q51 -3 51 -21q0 -11 -51 -21l5 -23q1 -2 1 -6q0 -7 -10 -7q-5 0 -10.5 4t-14 11t-16.5 11q-43 25 -110 25h-8q4 -48 16.5 -89t23 -63t10.5 -25q0 -5 -9 -5q-6 0 -23 5l-12 -56q-5 -22 -12 -22q-8 0 -13 22l-11 56
q-17 -5 -23 -5q-9 0 -9 5q0 4 11 25.5t23 62.5t15 89q-77 0 -119 -26q-7 -4 -15.5 -11t-13.5 -10.5t-10 -3.5q-10 0 -10 7q0 4 1 6l5 23q-51 10 -51 21q0 18 51 21l-6 24q-1 3 -1 7q0 8 9 8q7 0 23.5 -14t28.5 -20q36 -17 108 -20q0 133 -37 182z" />
    <glyph glyph-name="bullet" unicode="&#x2022;" horiz-adv-x="590" 
d="M150 372q0 60 42.5 102t102.5 42q59 0 101.5 -42t42.5 -102q0 -59 -42.5 -102t-102.5 -43t-102 42.5t-42 102.5z" />
    <glyph glyph-name="ellipsis" unicode="&#x2026;" horiz-adv-x="1000" 
d="M122 37q0 18 13 31.5t31 13.5q19 0 32 -13t13 -32t-13 -31.5t-32 -12.5t-31.5 13t-12.5 31zM455 37q0 18 13 31.5t31 13.5q19 0 32 -13t13 -32t-13 -31.5t-32 -12.5t-31.5 13t-12.5 31zM789 37q0 18 13 31.5t31 13.5q19 0 32 -13t13 -32t-13 -31.5t-32 -12.5t-31.5 13
t-12.5 31z" />
    <glyph glyph-name="perthousand" unicode="&#x2030;" horiz-adv-x="1042" 
d="M191 -12h-30l351 676h31zM28 484q0 77 38.5 126.5t92.5 49.5t93 -50t39 -126t-39 -126t-93 -50t-92.5 49.5t-38.5 126.5zM92 484q0 -87 14.5 -124.5t52.5 -37.5q39 0 53 37.5t14 124.5q0 88 -14 125t-53 37t-53 -37.5t-14 -124.5zM413 169q0 76 38.5 125.5t92.5 49.5
q55 0 93.5 -49.5t38.5 -125.5t-39 -126t-93 -50t-92.5 49.5t-38.5 126.5zM478 169q0 -87 14 -124.5t52 -37.5q39 0 53 37.5t14 124.5q0 88 -14 124.5t-53 36.5t-52.5 -36.5t-13.5 -124.5zM751 169q0 76 38.5 125.5t92.5 49.5q55 0 93.5 -49.5t38.5 -125.5t-39 -126t-93 -50
t-92.5 49.5t-38.5 126.5zM816 169q0 -87 14 -124.5t52 -37.5q39 0 53 37.5t14 124.5q0 88 -14 124.5t-53 36.5t-52.5 -36.5t-13.5 -124.5z" />
    <glyph glyph-name="guilsinglleft" unicode="&#x2039;" horiz-adv-x="278" 
d="M54 200q115 106 159 152h14q-26 -50 -111 -152q85 -102 111 -152h-14q-44 46 -159 152z" />
    <glyph glyph-name="guilsinglright" unicode="&#x203a;" horiz-adv-x="278" 
d="M224 200q-115 -106 -159 -152h-14q27 53 110 152q-83 99 -110 152h14q44 -46 159 -152z" />
    <glyph glyph-name="fraction" unicode="&#x2044;" horiz-adv-x="167" 
d="M-137 -12h-30l470 676h30z" />
    <glyph glyph-name="Euro" unicode="&#x20ac;" horiz-adv-x="481" 
d="M443 235h13v-220h-13q-3 46 -24 46q-10 0 -24.5 -11.5t-28.5 -25t-39 -25t-54 -11.5q-79 0 -150 79.5t-84 199.5h-51l10 24h39v30q0 18 2 41h-54l11 24h46q20 129 85 203.5t149 74.5q37 0 67.5 -16t49.5 -32.5t29 -16.5q21 0 21 39h13v-194h-13q-6 92 -54.5 149.5
t-108.5 57.5q-66 0 -108 -69.5t-42 -187.5v-8h208l-10 -24h-199v-71h167l-10 -24h-157q0 -125 41.5 -195t105.5 -70q60 0 113 66t54 167z" />
    <glyph glyph-name="trademark" unicode="&#x2122;" horiz-adv-x="822" 
d="M125 702h215l5 -87h-12q-7 74 -67 74h-10v-208q0 -24 22 -26l15 -1v-13h-121v13l15 1q22 2 22 26v208h-10q-60 0 -67 -74h-13zM385 702h89l69 -195l72 195h85v-12l-14 -1q-23 -2 -23 -26v-182q0 -24 23 -26l14 -1v-13h-115v13l15 1q22 2 22 26v193l-87 -234h-7l-85 234
v-193q0 -24 23 -26l15 -1v-13h-96v13l16 1q22 2 22 26v181q0 24 -23 26l-15 1v13z" />
    <glyph glyph-name="minus" unicode="&#x2212;" horiz-adv-x="833" 
d="M124 327h585v-58h-585v58z" />
    <glyph glyph-name="fi" unicode="&#xfb01;" horiz-adv-x="481" 
d="M23 0v14h58v370h-58v14h58q-1 11 -1 32q0 124 54 190.5t151 66.5q56 0 91.5 -24.5t35.5 -59.5q0 -25 -13 -39t-36 -14q-19 0 -31 12.5t-12 30.5q0 28 20 38q4 2 10 3.5l10 2.5t7 3.5t3 5.5q0 11 -21 20.5t-54 9.5q-76 0 -104 -37.5t-28 -130.5v-110h153q62 0 92 12v-396
h56v-14h-197v14h58v370h-161v-370h56v-14h-197z" />
    <glyph glyph-name="fl" unicode="&#xfb02;" horiz-adv-x="481" 
d="M410 686v-672h55v-14h-194v14h58v542q-25 12 -25 41q0 18 13.5 34t13.5 17q0 10 -16.5 18.5t-42.5 8.5q-56 0 -82.5 -40.5t-26.5 -124.5v-112h77v-14h-76v-370h56v-14h-197v14h58v370h-58v14h58q-1 11 -1 31q0 122 52 190t138 68q21 0 53.5 -8.5t43.5 -8.5q24 0 43 16z
" />
    </font>
</defs>
</svg>
